<?xml version="1.0" standalone="no"?><!-- Generator: Gravit.io --><svg xmlns="http://www.w3.org/2000/svg" xmlns:xlink="http://www.w3.org/1999/xlink" style="isolation:isolate" viewBox="0 0 393.76 430.49" width="393.76" height="430.49"><path d=" M 144.87 177.18 C 148.53 180.24 150.83 184.63 151.26 189.38 C 151.69 194.13 150.21 198.87 147.15 202.53 C 144.1 206.2 139.7 208.5 134.95 208.93 C 130.2 209.36 125.47 207.88 121.8 204.82 C 112.3 196.89 103.16 188.53 94.42 179.77 C 85.93 171.28 77.89 162.35 70.35 153 C 66.73 148.49 63.25 143.88 59.93 139.15 C 56.71 134.58 53.66 129.88 50.79 125.08 C 48.02 120.45 45.45 115.69 43.1 110.83 C 40.83 106.13 38.81 101.31 37.05 96.39 C 35.44 91.89 35.69 86.94 37.73 82.63 C 39.78 78.31 43.45 74.99 47.95 73.38 C 52.44 71.78 57.39 72.02 61.71 74.07 C 66.02 76.11 69.35 79.79 70.95 84.28 C 72.27 87.98 73.8 91.61 75.51 95.15 C 77.4 99.06 79.46 102.88 81.69 106.61 C 84.1 110.64 86.66 114.58 89.37 118.43 C 92.25 122.52 95.26 126.52 98.39 130.42 C 105.13 138.77 112.3 146.75 119.89 154.33 C 127.86 162.32 136.2 169.95 144.87 177.18 Z " fill="rgb(79,54,94)"/><path d=" M 253.22 199.45 C 252.36 203.33 250 206.72 246.65 208.86 C 243.3 211.01 239.23 211.73 235.35 210.88 C 231.46 210.02 228.07 207.66 225.93 204.31 C 223.79 200.96 223.06 196.89 223.92 193.01 C 225.71 184.87 228.99 177.13 233.61 170.19 C 238.03 163.57 243.55 157.75 249.93 152.99 C 256.18 148.31 263.13 144.66 270.53 142.17 C 277.96 139.66 285.75 138.38 293.59 138.37 C 300.12 138.36 306.62 139.28 312.88 141.1 C 319.4 143 325.6 145.88 331.26 149.64 C 336.2 152.91 340.75 156.73 344.83 161.03 C 348.78 165.2 352.22 169.83 355.07 174.82 C 357.87 179.74 360.04 185 361.52 190.46 C 363.01 195.94 363.76 201.59 363.76 207.27 C 363.76 212.64 363.09 217.98 361.77 223.19 C 360.39 228.58 358.37 233.78 355.75 238.68 C 352.99 243.85 349.64 248.68 345.79 253.09 C 341.66 257.83 337.05 262.14 332.04 265.94 C 328.88 268.35 324.88 269.4 320.94 268.86 C 317 268.33 313.43 266.24 311.02 263.08 C 308.62 259.91 307.57 255.91 308.1 251.97 C 308.64 248.03 310.72 244.46 313.89 242.06 C 317.28 239.48 320.39 236.57 323.19 233.37 C 325.55 230.66 327.6 227.69 329.3 224.53 C 330.78 221.76 331.92 218.83 332.69 215.8 C 333.4 213.01 333.76 210.14 333.76 207.26 C 333.76 204.23 333.36 201.22 332.57 198.3 C 331.75 195.29 330.56 192.4 329.01 189.69 C 327.36 186.79 325.36 184.1 323.06 181.68 C 320.54 179.02 317.73 176.66 314.67 174.64 C 311.54 172.56 308.11 170.96 304.5 169.9 C 300.97 168.88 297.31 168.36 293.64 168.37 C 289.04 168.37 284.47 169.13 280.11 170.6 C 275.72 172.07 271.6 174.24 267.89 177.01 C 264.25 179.73 261.1 183.05 258.57 186.83 C 256.02 190.67 254.21 194.95 253.22 199.45 Z " fill="rgb(79,54,94)"/><g><path d=" M 49.112 412.927 L 330.112 412.927 C 330.112 422.627 322.249 430.49 312.549 430.49 L 66.674 430.49 C 56.975 430.49 49.112 422.627 49.112 412.927 Z " fill="rgb(120,139,156)"/><path d=" M 62.108 404.146 L 90.208 333.896 L 289.015 333.896 L 317.115 404.146 L 62.108 404.146 L 62.108 404.146 Z " fill="rgb(197,212,222)"/><path d=" M 283.044 342.677 L 304.119 395.365 L 75.807 395.365 L 96.882 342.677 L 283.044 342.677 Z  M 294.987 325.115 L 84.237 325.115 L 49.112 412.927 L 330.112 412.927 L 294.987 325.115 Z " fill="rgb(163,183,204)"/><path d=" M 93.018 316.334 L 93.018 202.177 C 93.018 197.328 96.949 193.396 101.799 193.396 L 277.424 193.396 C 282.274 193.396 286.205 197.328 286.205 202.177 L 286.205 316.334 L 93.018 316.334 Z " fill="rgb(219,242,255)"/><path d=" M 277.424 202.177 L 277.424 307.552 L 101.799 307.552 L 101.799 202.177 L 277.424 202.177 Z  M 277.424 184.615 L 101.799 184.615 C 92.1 184.615 84.237 192.478 84.237 202.177 L 84.237 325.115 L 294.987 325.115 L 294.987 202.177 C 294.987 192.478 287.124 184.615 277.424 184.615 Z " fill="rgb(102,121,143)"/><path d=" M 218.238 360.24 L 160.633 360.591 L 154.487 395.716 L 224.737 395.716 L 218.238 360.24 L 218.238 360.24 Z " fill="rgb(120,139,156)"/><path d=" M 96.179 342.677 L 282.868 342.677 L 297.27 377.802 L 81.953 378.154 L 96.179 342.677 L 96.179 342.677 Z " fill="rgb(84,110,122)"/></g><rect x="101.157" y="202.316" width="176.5" height="105.219" transform="matrix(1,0,0,1,0,0)" fill="rgb(70,70,70)"/><line x1="205.99" y1="215.667" x2="173.99" y2="292.333" vector-effect="non-scaling-stroke" stroke-width="10" stroke="rgb(255,255,255)" stroke-linejoin="round" stroke-linecap="round" stroke-miterlimit="3"/><path d=" M 214.117 276.375 L 235.567 254.925 L 214.117 233.475 C 213.187 232.535 212.657 231.265 212.657 229.945 C 212.657 228.615 213.187 227.345 214.117 226.405 C 215.057 225.465 216.327 224.945 217.657 224.945 C 218.987 224.945 220.257 225.465 221.197 226.405 L 249.717 254.925 L 221.197 283.445 C 220.257 284.385 218.987 284.905 217.657 284.905 C 216.327 284.905 215.057 284.385 214.117 283.445 C 213.187 282.505 212.657 281.235 212.657 279.905 C 212.657 278.585 213.187 277.315 214.117 276.375 Z " fill="rgb(255,255,255)"/><path d=" M 164.59 276.375 L 143.14 254.925 L 164.59 233.475 C 165.52 232.535 166.05 231.265 166.05 229.945 C 166.05 228.615 165.52 227.345 164.59 226.405 C 163.65 225.465 162.38 224.945 161.05 224.945 C 159.72 224.945 158.45 225.465 157.51 226.405 L 128.99 254.925 L 157.51 283.445 C 158.45 284.385 159.72 284.905 161.05 284.905 C 162.38 284.905 163.65 284.385 164.59 283.445 C 165.52 282.505 166.05 281.235 166.05 279.905 C 166.05 278.585 165.52 277.315 164.59 276.375 Z " fill="rgb(255,255,255)"/><g><g><path d="M 184.404 0 L 189.896 0 C 216.331 0 237.794 21.462 237.794 47.898 L 237.794 81.285 C 237.794 92.954 228.32 102.428 216.651 102.428 L 158.003 102.428 C 146.139 102.428 136.506 92.796 136.506 80.932 L 136.506 47.898 C 136.506 21.462 157.969 0 184.404 0 Z" style="stroke:none;fill:#513834;stroke-miterlimit:10;"/><clipPath id="_clipPath_WHETsRFr2KrRL9xSrEvPATdW6DXBHsNa"><path d="M 184.404 0 L 189.896 0 C 216.331 0 237.794 21.462 237.794 47.898 L 237.794 81.285 C 237.794 92.954 228.32 102.428 216.651 102.428 L 158.003 102.428 C 146.139 102.428 136.506 92.796 136.506 80.932 L 136.506 47.898 C 136.506 21.462 157.969 0 184.404 0 Z" style="stroke:none;fill:#513834;stroke-miterlimit:10;"/></clipPath><g clip-path="url(#_clipPath_WHETsRFr2KrRL9xSrEvPATdW6DXBHsNa)"><path d="M 181.667 -0.57 L 187.158 -0.57 C 213.594 -0.57 235.056 20.892 235.056 47.328 L 235.056 80.715 C 235.056 92.384 225.583 101.858 213.914 101.858 L 155.265 101.858 C 143.401 101.858 133.769 92.225 133.769 80.361 L 133.769 47.328 C 133.769 20.892 155.231 -0.57 181.667 -0.57 Z" style="stroke:none;fill:#6C433E;stroke-miterlimit:10;"/></g><path d="M 139.083 82.752 L 144.615 82.752 C 148.754 82.752 152.115 86.113 152.115 90.252 L 152.115 90.252 C 152.115 94.391 148.754 97.751 144.615 97.751 L 139.083 97.751 C 134.944 97.751 131.583 94.391 131.583 90.252 L 131.583 90.252 C 131.583 86.113 134.944 82.752 139.083 82.752 Z" style="stroke:none;fill:#E87071;stroke-miterlimit:10;"/><path d="M 229.685 82.752 L 235.217 82.752 C 239.356 82.752 242.717 86.113 242.717 90.252 L 242.717 90.252 C 242.717 94.391 239.356 97.751 235.217 97.751 L 229.685 97.751 C 225.546 97.751 222.185 94.391 222.185 90.252 L 222.185 90.252 C 222.185 86.113 225.546 82.752 229.685 82.752 Z" style="stroke:none;fill:#E87071;stroke-miterlimit:10;"/><path d="M 187.15 20.075 L 187.15 20.075 C 212.152 20.075 232.451 40.374 232.451 65.376 L 232.451 183.64 L 141.849 183.64 L 141.849 65.376 C 141.849 40.374 162.148 20.075 187.15 20.075 Z" style="stroke:none;fill:#F5C19F;stroke-miterlimit:10;"/><circle vector-effect="non-scaling-stroke" cx="172.26487299389657" cy="77.50524588497136" r="3.5929584185086014" fill="rgb(44,56,69)"/><circle vector-effect="non-scaling-stroke" cx="172.26487299389657" cy="77.50524588497136" r="3.5929584185086014" fill="rgb(44,56,69)"/><circle vector-effect="non-scaling-stroke" cx="202.03509989011064" cy="77.50524588497136" r="3.5929584185086014" fill="rgb(44,56,69)"/><path d="M 187.15 86.774 L 187.15 86.774 C 201.944 86.774 213.955 98.785 213.955 113.579 L 213.955 128.005 C 213.955 142.799 201.944 154.809 187.15 154.809 L 187.15 154.809 C 172.356 154.809 160.345 142.799 160.345 128.005 L 160.345 113.579 C 160.345 98.785 172.356 86.774 187.15 86.774 Z" style="stroke:none;fill:#40322F;stroke-miterlimit:10;"/><clipPath id="_clipPath_cVDzgXvRpWj0cgk1V5lSrsB8WxelidPy"><path d="M 187.15 86.774 L 187.15 86.774 C 201.944 86.774 213.955 98.785 213.955 113.579 L 213.955 128.005 C 213.955 142.799 201.944 154.809 187.15 154.809 L 187.15 154.809 C 172.356 154.809 160.345 142.799 160.345 128.005 L 160.345 113.579 C 160.345 98.785 172.356 86.774 187.15 86.774 Z" style="stroke:none;fill:#40322F;stroke-miterlimit:10;"/></clipPath><g clip-path="url(#_clipPath_cVDzgXvRpWj0cgk1V5lSrsB8WxelidPy)"><path d="M 187.35 81.041 L 187.35 81.041 C 202.143 81.041 214.154 93.052 214.154 107.846 L 214.154 122.272 C 214.154 137.066 202.143 149.076 187.35 149.076 L 187.35 149.076 C 172.556 149.076 160.545 137.066 160.545 122.272 L 160.545 107.846 C 160.545 93.052 172.556 81.041 187.35 81.041 Z" style="stroke:none;fill:#6C433E;stroke-miterlimit:10;"/></g><path d="M 186.83 71.859 L 187.47 71.859 C 192.204 71.859 196.047 75.702 196.047 80.436 L 196.047 93.281 C 196.047 98.014 192.204 101.858 187.47 101.858 L 186.83 101.858 C 182.096 101.858 178.253 98.014 178.253 93.281 L 178.253 80.436 C 178.253 75.702 182.096 71.859 186.83 71.859 Z" style="stroke:none;fill:#ED9683;stroke-miterlimit:10;"/><clipPath id="_clipPath_6xpQKtqXDNvujLjwzPrUa4e9eqeGGyrl"><path d="M 186.83 71.859 L 187.47 71.859 C 192.204 71.859 196.047 75.702 196.047 80.436 L 196.047 93.281 C 196.047 98.014 192.204 101.858 187.47 101.858 L 186.83 101.858 C 182.096 101.858 178.253 98.014 178.253 93.281 L 178.253 80.436 C 178.253 75.702 182.096 71.859 186.83 71.859 Z" style="stroke:none;fill:#ED9683;stroke-miterlimit:10;"/></clipPath><g clip-path="url(#_clipPath_6xpQKtqXDNvujLjwzPrUa4e9eqeGGyrl)"><path d="M 186.097 68.951 L 188.203 68.951 C 193.287 68.951 197.416 73.079 197.416 78.163 L 197.416 89.736 C 197.416 94.821 193.287 98.949 188.203 98.949 L 186.097 98.949 C 181.013 98.949 176.884 94.821 176.884 89.736 L 176.884 78.163 C 176.884 73.079 181.013 68.951 186.097 68.951 Z" style="stroke:none;fill:#F5C19F;stroke-miterlimit:10;"/></g><path d="M 199.953 59.312 L 209.535 59.312 C 211.801 59.312 213.641 61.152 213.641 63.419 L 213.641 63.419 C 213.641 65.685 211.801 67.525 209.535 67.525 L 199.953 67.525 C 197.687 67.525 195.847 65.685 195.847 63.419 L 195.847 63.419 C 195.847 61.152 197.687 59.312 199.953 59.312 Z" style="stroke:none;fill:#40322F;stroke-miterlimit:10;"/><clipPath id="_clipPath_RRiphBQIt9t0EkeDTMO7zruh3QqfGIOj"><path d="M 199.953 59.312 L 209.535 59.312 C 211.801 59.312 213.641 61.152 213.641 63.419 L 213.641 63.419 C 213.641 65.685 211.801 67.525 209.535 67.525 L 199.953 67.525 C 197.687 67.525 195.847 65.685 195.847 63.419 L 195.847 63.419 C 195.847 61.152 197.687 59.312 199.953 59.312 Z" style="stroke:none;fill:#40322F;stroke-miterlimit:10;"/></clipPath><g clip-path="url(#_clipPath_RRiphBQIt9t0EkeDTMO7zruh3QqfGIOj)"><path d="M 199.953 57.259 L 209.535 57.259 C 211.801 57.259 213.641 59.099 213.641 61.365 L 213.641 61.365 C 213.641 63.632 211.801 65.472 209.535 65.472 L 199.953 65.472 C 197.687 65.472 195.847 63.632 195.847 61.365 L 195.847 61.365 C 195.847 59.099 197.687 57.259 199.953 57.259 Z" style="stroke:none;fill:#6C433E;stroke-miterlimit:10;"/></g><path d="M 165.421 59.312 L 175.002 59.312 C 177.269 59.312 179.109 61.152 179.109 63.419 L 179.109 63.419 C 179.109 65.685 177.269 67.525 175.002 67.525 L 165.421 67.525 C 163.155 67.525 161.315 65.685 161.315 63.419 L 161.315 63.419 C 161.315 61.152 163.155 59.312 165.421 59.312 Z" style="stroke:none;fill:#40322F;stroke-miterlimit:10;"/><clipPath id="_clipPath_llOX7iPgXdKLqGXY8ddG6mNoWJpkPG1H"><path d="M 165.421 59.312 L 175.002 59.312 C 177.269 59.312 179.109 61.152 179.109 63.419 L 179.109 63.419 C 179.109 65.685 177.269 67.525 175.002 67.525 L 165.421 67.525 C 163.155 67.525 161.315 65.685 161.315 63.419 L 161.315 63.419 C 161.315 61.152 163.155 59.312 165.421 59.312 Z" style="stroke:none;fill:#40322F;stroke-miterlimit:10;"/></clipPath><g clip-path="url(#_clipPath_llOX7iPgXdKLqGXY8ddG6mNoWJpkPG1H)"><path d="M 165.421 57.259 L 175.002 57.259 C 177.269 57.259 179.109 59.099 179.109 61.365 L 179.109 61.365 C 179.109 63.632 177.269 65.472 175.002 65.472 L 165.421 65.472 C 163.155 65.472 161.315 63.632 161.315 61.365 L 161.315 61.365 C 161.315 59.099 163.155 57.259 165.421 57.259 Z" style="stroke:none;fill:#6C433E;stroke-miterlimit:10;"/></g><path d=" M 174.07 110.316 L 200.23 110.316 C 200.801 117.861 194.777 124.389 187.21 124.424 C 179.601 124.459 173.495 117.903 174.07 110.316 Z " fill="rgb(235,235,235)"/><path d="M 187.15 0 L 221.023 0 C 232.996 0 242.717 9.72 242.717 21.693 L 242.717 45.169 L 208.843 45.169 C 196.87 45.169 187.15 35.448 187.15 23.475 L 187.15 0 Z" style="stroke:none;fill:#40322F;stroke-miterlimit:10;"/><clipPath id="_clipPath_3kGlrXXNtfwnQqYTdS4aIp42ZsZCdKxD"><path d="M 187.15 0 L 221.023 0 C 232.996 0 242.717 9.72 242.717 21.693 L 242.717 45.169 L 208.843 45.169 C 196.87 45.169 187.15 35.448 187.15 23.475 L 187.15 0 Z" style="stroke:none;fill:#40322F;stroke-miterlimit:10;"/></clipPath><g clip-path="url(#_clipPath_3kGlrXXNtfwnQqYTdS4aIp42ZsZCdKxD)"><path d="M 182.359 -4.448 L 216.233 -4.448 C 228.206 -4.448 237.926 5.272 237.926 17.245 L 237.926 40.72 L 204.053 40.72 C 192.08 40.72 182.359 31 182.359 19.027 L 182.359 -4.448 Z" style="stroke:none;fill:#6C433E;stroke-miterlimit:10;"/></g><g style="mix-blend-mode:normal;" opacity="0.31"><path d="M 205.97 8.212 L 212.957 8.212 C 215.223 8.212 217.063 10.052 217.063 12.319 L 217.063 12.319 C 217.063 14.585 215.223 16.425 212.957 16.425 L 205.97 16.425 C 203.704 16.425 201.864 14.585 201.864 12.319 L 201.864 12.319 C 201.864 10.052 203.704 8.212 205.97 8.212 Z" style="stroke:none;fill:#EBEBEB;stroke-miterlimit:10;"/></g><g style="mix-blend-mode:normal;" opacity="0.31"><path d="M 222.356 22.584 L 227.596 22.584 C 229.295 22.584 230.675 23.964 230.675 25.664 L 230.675 25.664 C 230.675 27.364 229.295 28.744 227.596 28.744 L 222.356 28.744 C 220.656 28.744 219.276 27.364 219.276 25.664 L 219.276 25.664 C 219.276 23.964 220.656 22.584 222.356 22.584 Z" style="stroke:none;fill:#EBEBEB;stroke-miterlimit:10;"/></g><g style="mix-blend-mode:normal;" opacity="0.31"><path d="M 202.837 25.664 L 208.077 25.664 C 209.777 25.664 211.157 27.044 211.157 28.744 L 211.157 28.744 C 211.157 30.443 209.777 31.823 208.077 31.823 L 202.837 31.823 C 201.137 31.823 199.757 30.443 199.757 28.744 L 199.757 28.744 C 199.757 27.044 201.137 25.664 202.837 25.664 Z" style="stroke:none;fill:#EBEBEB;stroke-miterlimit:10;"/></g><g style="mix-blend-mode:normal;" opacity="0.42"><path d="M 167.802 118.967 L 167.802 118.967 C 168.951 118.967 169.884 119.9 169.884 121.048 L 169.884 122.343 C 169.884 123.491 168.951 124.424 167.802 124.424 L 167.802 124.424 C 166.653 124.424 165.721 123.491 165.721 122.343 L 165.721 121.048 C 165.721 119.9 166.653 118.967 167.802 118.967 Z" style="stroke:none;fill:#EBEBEB;stroke-miterlimit:10;"/></g><g style="mix-blend-mode:normal;" opacity="0.42"><path d="M 199.429 127.758 L 199.429 127.758 C 200.578 127.758 201.511 128.691 201.511 129.84 L 201.511 131.134 C 201.511 132.283 200.578 133.216 199.429 133.216 L 199.429 133.216 C 198.281 133.216 197.348 132.283 197.348 131.134 L 197.348 129.84 C 197.348 128.691 198.281 127.758 199.429 127.758 Z" style="stroke:none;fill:#EBEBEB;stroke-miterlimit:10;"/></g><g style="mix-blend-mode:normal;" opacity="0.42"><path d="M 206.498 117.37 L 206.498 117.37 C 207.647 117.37 208.579 118.303 208.579 119.452 L 208.579 120.746 C 208.579 121.895 207.647 122.827 206.498 122.827 L 206.498 122.827 C 205.349 122.827 204.416 121.895 204.416 120.746 L 204.416 119.452 C 204.416 118.303 205.349 117.37 206.498 117.37 Z" style="stroke:none;fill:#EBEBEB;stroke-miterlimit:10;"/></g><g style="mix-blend-mode:normal;" opacity="0.42"><path d="M 175.444 126.012 L 175.444 126.012 C 176.593 126.012 177.526 126.945 177.526 128.094 L 177.526 131.476 C 177.526 132.625 176.593 133.558 175.444 133.558 L 175.444 133.558 C 174.295 133.558 173.363 132.625 173.363 131.476 L 173.363 128.094 C 173.363 126.945 174.295 126.012 175.444 126.012 Z" style="stroke:none;fill:#EBEBEB;stroke-miterlimit:10;"/></g><g style="mix-blend-mode:normal;" opacity="0.42"><path d="M 188.687 133.216 L 189.121 133.216 C 190.15 133.216 190.985 134.051 190.985 135.08 L 190.985 137.405 C 190.985 138.434 190.15 139.27 189.121 139.27 L 188.687 139.27 C 187.658 139.27 186.822 138.434 186.822 137.405 L 186.822 135.08 C 186.822 134.051 187.658 133.216 188.687 133.216 Z" style="stroke:none;fill:#EBEBEB;stroke-miterlimit:10;"/></g><path d="M 140.566 172.778 L 233.734 172.778 C 235.974 172.778 237.794 174.597 237.794 176.838 L 237.794 181.607 C 237.794 183.847 235.974 185.667 233.734 185.667 L 140.566 185.667 C 138.326 185.667 136.506 183.847 136.506 181.607 L 136.506 176.838 C 136.506 174.597 138.326 172.778 140.566 172.778 Z" style="stroke:none;fill:#4F365E;stroke-miterlimit:10;"/><clipPath id="_clipPath_xRV15j60cOzE9dfCAfZu6LtAt5A45TlK"><path d="M 140.566 172.778 L 233.734 172.778 C 235.974 172.778 237.794 174.597 237.794 176.838 L 237.794 181.607 C 237.794 183.847 235.974 185.667 233.734 185.667 L 140.566 185.667 C 138.326 185.667 136.506 183.847 136.506 181.607 L 136.506 176.838 C 136.506 174.597 138.326 172.778 140.566 172.778 Z" style="stroke:none;fill:#4F365E;stroke-miterlimit:10;"/></clipPath><g clip-path="url(#_clipPath_xRV15j60cOzE9dfCAfZu6LtAt5A45TlK)"><path d="M 135.081 172.778 L 175.173 172.778 C 178.73 172.778 181.618 175.665 181.618 179.222 L 181.618 179.222 C 181.618 182.779 178.73 185.667 175.173 185.667 L 135.081 185.667 C 131.524 185.667 128.636 182.779 128.636 179.222 L 128.636 179.222 C 128.636 175.665 131.524 172.778 135.081 172.778 Z" style="stroke:none;fill:#663D86;stroke-miterlimit:10;"/></g></g></g><g><path d=" M 275.398 251.441 C 281.062 238.051 296.532 231.778 309.923 237.443 C 323.313 243.107 329.586 258.578 323.921 271.968 C 318.257 285.359 302.786 291.631 289.396 285.967 C 276.006 280.302 269.733 264.832 275.398 251.441 Z " fill="rgb(237,150,131)"/><clipPath id="_clipPath_0POSvEKhS1zAzVtAgWYKXDkkzYS47Dxx"><path d=" M 275.398 251.441 C 281.062 238.051 296.532 231.778 309.923 237.443 C 323.313 243.107 329.586 258.578 323.921 271.968 C 318.257 285.359 302.786 291.631 289.396 285.967 C 276.006 280.302 269.733 264.832 275.398 251.441 Z " fill="rgb(237,150,131)"/></clipPath><g clip-path="url(#_clipPath_0POSvEKhS1zAzVtAgWYKXDkkzYS47Dxx)"><path d=" M 277.446 246.6 C 283.11 233.21 298.58 226.937 311.971 232.602 C 325.361 238.266 331.634 253.736 325.969 267.127 C 320.305 280.517 304.834 286.79 291.444 281.125 C 278.054 275.461 271.781 259.99 277.446 246.6 Z " fill="rgb(245,193,159)"/></g><path d="M 287.119 272.181 L 287.119 272.181 C 288.819 275.934 287.054 280.405 283.181 282.159 L 269.101 288.536 C 265.228 290.29 260.703 288.668 259.004 284.915 L 259.004 284.915 C 257.304 281.162 259.068 276.691 262.941 274.937 L 277.022 268.56 C 280.895 266.806 285.42 268.428 287.119 272.181 Z" style="stroke:none;fill:#F5C19F;stroke-miterlimit:10;"/></g><g><path d="M 55.073 36.676 L 55.073 36.676 C 59.816 36.676 63.667 40.765 63.667 45.803 L 63.667 74.5 L 55.607 74.5 C 50.57 74.5 46.48 70.41 46.48 65.373 L 46.48 45.803 C 46.48 40.765 50.33 36.676 55.073 36.676 Z" style="stroke:none;fill:#ED9683;stroke-miterlimit:10;"/><path d=" M 24.898 69.804 C 29.305 59.387 41.34 54.508 51.757 58.914 C 62.173 63.321 67.053 75.356 62.646 85.773 C 58.24 96.189 46.205 101.069 35.788 96.662 C 25.371 92.256 20.492 80.221 24.898 69.804 Z " fill="rgb(245,193,159)"/><clipPath id="_clipPath_Tnsm1CY27r2OX3C60S0qbgkO8Oykq6nH"><path d=" M 24.898 69.804 C 29.305 59.387 41.34 54.508 51.757 58.914 C 62.173 63.321 67.053 75.356 62.646 85.773 C 58.24 96.189 46.205 101.069 35.788 96.662 C 25.371 92.256 20.492 80.221 24.898 69.804 Z " fill="rgb(245,193,159)"/></clipPath><g clip-path="url(#_clipPath_Tnsm1CY27r2OX3C60S0qbgkO8Oykq6nH)"><path d=" M 26.491 66.038 C 30.898 55.621 42.933 50.741 53.35 55.148 C 63.767 59.555 68.646 71.589 64.24 82.006 C 59.833 92.423 47.798 97.303 37.381 92.896 C 26.964 88.49 22.085 76.455 26.491 66.038 Z " fill="rgb(245,193,159)"/></g></g><g><path d="M 26.466 82.139 L 46.758 82.139 C 51.683 82.139 55.682 86.009 55.682 90.776 L 55.682 90.776 C 55.682 95.543 51.683 99.413 46.758 99.413 L 26.466 99.413 C 21.54 99.413 17.541 95.543 17.541 90.776 L 17.541 90.776 C 17.541 86.009 21.54 82.139 26.466 82.139 Z" style="stroke:none;fill:#ED9683;stroke-miterlimit:10;"/><clipPath id="_clipPath_gtKhpV0ji2WD5AfUlKgbnQgeq5EoRnGw"><path d="M 26.466 82.139 L 46.758 82.139 C 51.683 82.139 55.682 86.009 55.682 90.776 L 55.682 90.776 C 55.682 95.543 51.683 99.413 46.758 99.413 L 26.466 99.413 C 21.54 99.413 17.541 95.543 17.541 90.776 L 17.541 90.776 C 17.541 86.009 21.54 82.139 26.466 82.139 Z" style="stroke:none;fill:#ED9683;stroke-miterlimit:10;"/></clipPath><g clip-path="url(#_clipPath_gtKhpV0ji2WD5AfUlKgbnQgeq5EoRnGw)"><path d="M 25.466 80.06 L 45.758 80.06 C 50.683 80.06 54.682 83.93 54.682 88.697 L 54.682 88.697 C 54.682 93.464 50.683 97.335 45.758 97.335 L 25.466 97.335 C 20.54 97.335 16.541 93.464 16.541 88.697 L 16.541 88.697 C 16.541 83.93 20.54 80.06 25.466 80.06 Z" style="stroke:none;fill:#F5C19F;stroke-miterlimit:10;"/></g><path d="M 26.466 68.345 L 46.758 68.345 C 51.683 68.345 55.682 72.216 55.682 76.983 L 55.682 76.983 C 55.682 81.75 51.683 85.62 46.758 85.62 L 26.466 85.62 C 21.54 85.62 17.541 81.75 17.541 76.983 L 17.541 76.983 C 17.541 72.216 21.54 68.345 26.466 68.345 Z" style="stroke:none;fill:#ED9683;stroke-miterlimit:10;"/><clipPath id="_clipPath_7FIlxJsqmUimi1jdrwPjuYNPO2vQdKC8"><path d="M 26.466 68.345 L 46.758 68.345 C 51.683 68.345 55.682 72.216 55.682 76.983 L 55.682 76.983 C 55.682 81.75 51.683 85.62 46.758 85.62 L 26.466 85.62 C 21.54 85.62 17.541 81.75 17.541 76.983 L 17.541 76.983 C 17.541 72.216 21.54 68.345 26.466 68.345 Z" style="stroke:none;fill:#ED9683;stroke-miterlimit:10;"/></clipPath><g clip-path="url(#_clipPath_7FIlxJsqmUimi1jdrwPjuYNPO2vQdKC8)"><path d="M 25.466 66.267 L 45.758 66.267 C 50.683 66.267 54.682 70.137 54.682 74.904 L 54.682 74.904 C 54.682 79.671 50.683 83.541 45.758 83.541 L 25.466 83.541 C 20.54 83.541 16.541 79.671 16.541 74.904 L 16.541 74.904 C 16.541 70.137 20.54 66.267 25.466 66.267 Z" style="stroke:none;fill:#F5C19F;stroke-miterlimit:10;"/></g><path d="M 26.466 56.163 L 46.758 56.163 C 51.683 56.163 55.682 60.033 55.682 64.8 L 55.682 64.8 C 55.682 69.567 51.683 73.437 46.758 73.437 L 26.466 73.437 C 21.54 73.437 17.541 69.567 17.541 64.8 L 17.541 64.8 C 17.541 60.033 21.54 56.163 26.466 56.163 Z" style="stroke:none;fill:#ED9683;stroke-miterlimit:10;"/><clipPath id="_clipPath_Jg6hdJ7EZL4HpcLjMy1FGfxKGg2nZQeZ"><path d="M 26.466 56.163 L 46.758 56.163 C 51.683 56.163 55.682 60.033 55.682 64.8 L 55.682 64.8 C 55.682 69.567 51.683 73.437 46.758 73.437 L 26.466 73.437 C 21.54 73.437 17.541 69.567 17.541 64.8 L 17.541 64.8 C 17.541 60.033 21.54 56.163 26.466 56.163 Z" style="stroke:none;fill:#ED9683;stroke-miterlimit:10;"/></clipPath><g clip-path="url(#_clipPath_Jg6hdJ7EZL4HpcLjMy1FGfxKGg2nZQeZ)"><path d="M 25.466 54.085 L 45.758 54.085 C 50.683 54.085 54.682 57.955 54.682 62.722 L 54.682 62.722 C 54.682 67.489 50.683 71.359 45.758 71.359 L 25.466 71.359 C 20.54 71.359 16.541 67.489 16.541 62.722 L 16.541 62.722 C 16.541 57.955 20.54 54.085 25.466 54.085 Z" style="stroke:none;fill:#F5C19F;stroke-miterlimit:10;"/></g></g></svg>