<?xml version="1.0" standalone="no"?><!-- Generator: Gravit.io --><svg xmlns="http://www.w3.org/2000/svg" xmlns:xlink="http://www.w3.org/1999/xlink" style="isolation:isolate" viewBox="137.689 276.416 319.897 281.058" width="319.897" height="281.058"><g><mask id="_mask_LEA7Or9w8jxQKaCXmE17lVpUpPVfYIEW" x="-200%" y="-200%" width="400%" height="400%"><rect x="-200%" y="-200%" width="400%" height="400%" style="fill:white;"/><path d=" M 152.689 416.944 L 225.163 291.416 L 370.112 291.416 L 442.586 416.945 L 370.112 542.473 L 225.163 542.474 L 152.689 416.944 Z " fill="black" stroke="none"/></mask><path d=" M 152.689 416.944 L 225.163 291.416 L 370.112 291.416 L 442.586 416.945 L 370.112 542.473 L 225.163 542.474 L 152.689 416.944 Z " fill="rgb(235,235,235)" mask="url(#_mask_LEA7Or9w8jxQKaCXmE17lVpUpPVfYIEW)" vector-effect="non-scaling-stroke" stroke-width="10" stroke="rgb(225,147,147)" stroke-linejoin="miter" stroke-linecap="square" stroke-miterlimit="3"/><path d=" M 365.088 376.978 L 350.099 376.978 L 350.099 444.428 L 252.671 444.428 L 252.671 459.417 C 252.671 463.539 256.043 466.912 260.165 466.912 L 342.605 466.912 L 372.583 496.89 L 372.583 384.472 C 372.583 380.35 369.21 376.978 365.088 376.978 Z  M 335.11 421.945 L 335.11 354.494 C 335.11 350.373 331.738 347 327.616 347 L 230.187 347 C 226.066 347 222.693 350.373 222.693 354.494 L 222.693 459.417 L 252.671 429.439 L 327.616 429.439 C 331.738 429.439 335.11 426.067 335.11 421.945 Z " fill="rgb(172,98,98)"/></g></svg>