<?xml version="1.0" standalone="no"?><!-- Generator: Gravit.io --><svg xmlns="http://www.w3.org/2000/svg" xmlns:xlink="http://www.w3.org/1999/xlink" style="isolation:isolate" viewBox="0 0 319.897 281.058" width="319.897" height="281.058"><clipPath id="_clipPath_6uZMxjxWLeGN1KAbkAry9XvH1owODEuG"><path d=" M -777.483 -569.698 L 502.105 -569.698 L 502.105 554.534 L -777.483 554.534 L -777.483 -569.698 Z  M 15 140.529 L 87.474 15 L 232.423 15 L 304.897 140.529 L 232.423 266.058 L 87.474 266.059 L 15 140.529 Z " fill-rule="evenodd" fill="rgb(255,255,255)"/></clipPath><g clip-path="url(#_clipPath_6uZMxjxWLeGN1KAbkAry9XvH1owODEuG)"><mask id="_mask_v62qHqi9QXiAyFQGD4OzV6cpwJqCggHN" x="-200%" y="-200%" width="400%" height="400%"><rect x="-200%" y="-200%" width="400%" height="400%" style="fill:white;"/><path d=" M 15 140.529 L 87.474 15 L 232.423 15 L 304.897 140.529 L 232.423 266.058 L 87.474 266.059 L 15 140.529 Z " fill="black" stroke="none"/></mask><path d=" M 15 140.529 L 87.474 15 L 232.423 15 L 304.897 140.529 L 232.423 266.058 L 87.474 266.059 L 15 140.529 Z " fill="rgb(235,235,235)" mask="url(#_mask_v62qHqi9QXiAyFQGD4OzV6cpwJqCggHN)" vector-effect="non-scaling-stroke" stroke-width="10" stroke="rgb(66,130,80)" stroke-linejoin="miter" stroke-linecap="square" stroke-miterlimit="3"/></g><path d=" M 160.895 54.058 C 158.731 54.058 156.663 55.036 154.942 56.766 L 137.636 72.168 L 116.004 68.664 C 110.804 67.781 106.339 71.294 105.465 76.503 L 102.221 98.135 L 82.207 108.674 C 77.881 111.278 76.15 116.254 77.881 120.58 L 88.16 140.585 L 78.694 160.599 C 76.963 164.925 78.763 169.892 82.207 172.488 L 102.221 183.044 L 105.465 204.676 C 106.339 209.867 110.804 212.506 116.004 212.506 L 137.636 208.993 L 153.047 224.412 C 154.64 226.066 156.838 227 159.134 227 C 161.43 227 163.628 226.066 165.221 224.412 L 180.9 208.993 L 202.531 212.515 C 207.74 213.389 211.928 209.876 212.811 204.667 L 216.324 183.035 L 236.338 172.496 C 240.664 169.892 242.178 164.916 239.582 160.59 L 232.011 140.585 L 241.469 120.571 C 244.073 116.245 242.282 111.278 237.956 108.683 L 217.942 98.126 L 214.697 76.494 C 213.823 71.303 209.358 68.664 204.158 68.664 L 182.526 72.177 L 167.116 56.758 C 165.466 55.086 163.233 54.119 160.886 54.058 L 160.895 54.058 Z  M 108.165 123.28 L 128.179 123.28 L 128.179 128.419 L 115.2 128.419 L 115.2 137.885 L 125.47 137.885 L 125.47 143.285 L 115.191 143.285 L 115.191 157.89 L 108.165 157.89 L 108.165 123.28 Z  M 134.123 123.28 L 144.403 123.28 C 147.846 123.28 150.52 124.257 152.242 125.988 C 153.964 127.71 154.942 130.107 154.942 133.55 C 154.942 135.281 155.011 137.003 154.128 137.877 C 153.419 139.435 152.171 140.685 150.615 141.398 C 152.346 142.272 154.068 143.215 154.942 144.098 C 155.824 145.829 155.755 147.516 155.755 149.238 L 155.755 155.191 C 156.637 156.065 157.382 157.008 157.382 157.89 L 150.615 157.89 C 149.741 157.008 149.802 156.073 149.802 155.182 L 149.802 149.238 C 149.802 147.507 149.603 145.794 148.729 144.911 C 147.846 144.029 147.206 143.285 145.475 143.285 L 141.149 143.285 L 141.149 157.89 L 134.123 157.89 L 134.123 123.28 Z  M 165.221 123.28 L 184.421 123.28 L 184.421 128.419 L 171.442 128.419 L 171.442 137.072 L 181.713 137.072 L 181.713 142.212 L 171.434 142.212 L 171.434 152.751 L 184.413 152.751 L 184.413 157.89 L 165.221 157.89 L 165.221 123.28 Z  M 193.074 123.28 L 211.997 123.28 L 211.997 128.419 L 199.018 128.419 L 199.018 137.072 L 209.298 137.072 L 209.298 142.212 L 199.018 142.212 L 199.018 152.751 L 211.997 152.751 L 211.997 157.89 L 193.065 157.89 L 193.074 123.28 Z  M 141.158 128.419 L 141.158 138.967 L 144.394 138.967 C 146.124 138.967 147.033 138.759 147.916 137.877 C 148.789 137.003 148.729 136.363 148.729 134.641 C 148.729 132.91 148.789 132.002 147.916 131.119 C 147.033 129.397 146.124 128.419 144.403 128.419 L 141.158 128.419 Z " fill="rgb(66,130,80)"/></svg>