<?xml version="1.0" standalone="no"?><!-- Generator: Gravit.io --><svg xmlns="http://www.w3.org/2000/svg" xmlns:xlink="http://www.w3.org/1999/xlink" style="isolation:isolate" viewBox="73.191 506.603 173.991 177.934" width="173.991" height="177.934"><g><circle vector-effect="non-scaling-stroke" cx="160.15753620550464" cy="597.5695035545111" r="86.96692913385829" fill="rgb(47,44,44)"/><path d=" M 160.186 506.603 C 112.128 506.603 73.191 546.523 73.191 595.795 C 73.191 635.188 98.115 668.635 132.688 680.43 C 137.052 681.248 138.633 678.513 138.633 676.134 C 138.633 674.009 138.553 668.404 138.524 660.972 C 114.31 666.345 109.214 649.013 109.214 649.013 C 105.248 638.703 99.557 635.946 99.557 635.946 C 91.655 630.431 100.152 630.55 100.152 630.55 C 108.873 631.189 113.462 639.722 113.462 639.722 C 121.219 653.368 133.819 649.421 138.778 647.154 C 139.575 641.379 141.837 637.455 144.302 635.225 C 124.989 632.988 104.683 625.325 104.683 591.149 C 104.683 581.39 108.083 573.437 113.629 567.194 C 112.752 564.964 109.75 555.874 114.477 543.595 C 114.477 543.595 121.785 541.217 138.408 552.737 C 145.507 550.759 152.83 549.755 160.186 549.749 C 167.58 549.779 175.026 550.76 181.964 552.737 C 198.587 541.217 205.866 543.595 205.866 543.595 C 210.621 555.874 207.649 564.964 206.736 567.194 C 212.318 573.437 215.66 581.39 215.66 591.149 C 215.66 625.414 195.332 632.928 175.961 635.165 C 179.078 637.893 181.848 643.349 181.848 651.659 C 181.848 663.588 181.768 673.198 181.768 676.134 C 181.768 678.513 183.319 681.3 187.742 680.43 C 222.286 668.612 247.181 635.188 247.181 595.795 C 247.181 546.523 208.244 506.603 160.186 506.603 Z " fill-rule="evenodd" fill="rgb(187,181,181)"/></g></svg>