<?xml version="1.0" standalone="no"?><!-- Generator: Gravit.io --><svg xmlns="http://www.w3.org/2000/svg" xmlns:xlink="http://www.w3.org/1999/xlink" style="isolation:isolate" viewBox="0 0 322.172 322.172" width="322.172" height="322.172"><path d="M 38.661 0 L 283.511 0 C 304.849 0 322.172 17.323 322.172 38.661 L 322.172 283.511 C 322.172 304.849 304.849 322.172 283.511 322.172 L 38.661 322.172 C 17.323 322.172 0 304.849 0 283.511 L 0 38.661 C 0 17.323 17.323 0 38.661 0 Z" style="stroke:none;fill:#2C3845;stroke-miterlimit:10;"/><path d="M 47.107 21.213 L 275.065 21.213 C 289.356 21.213 300.959 32.816 300.959 47.107 L 300.959 267.892 C 300.959 282.183 289.356 293.786 275.065 293.786 L 47.107 293.786 C 32.816 293.786 21.213 282.183 21.213 267.892 L 21.213 47.107 C 21.213 32.816 32.816 21.213 47.107 21.213 Z" style="stroke:none;fill:#EBEBEB;stroke-miterlimit:10;"/><clipPath id="_clipPath_mvrzoHzz7PIq7fZdv48iSStgvncTfGx4"><path d="M 47.107 21.213 L 275.065 21.213 C 289.356 21.213 300.959 32.816 300.959 47.107 L 300.959 267.892 C 300.959 282.183 289.356 293.786 275.065 293.786 L 47.107 293.786 C 32.816 293.786 21.213 282.183 21.213 267.892 L 21.213 47.107 C 21.213 32.816 32.816 21.213 47.107 21.213 Z" style="stroke:none;fill:#EBEBEB;stroke-miterlimit:10;"/></clipPath><g clip-path="url(#_clipPath_mvrzoHzz7PIq7fZdv48iSStgvncTfGx4)"><g><rect x="21.213" y="75.723" width="279.746" height="54.51" transform="matrix(1,0,0,1,0,0)" fill="rgb(235,235,235)" vector-effect="non-scaling-stroke" stroke-width="1" stroke="rgb(0,0,0)" stroke-linejoin="miter" stroke-linecap="square" stroke-miterlimit="2"/><rect x="21.213" y="130.233" width="279.746" height="54.51" transform="matrix(1,0,0,1,0,0)" fill="rgb(235,235,235)" vector-effect="non-scaling-stroke" stroke-width="1" stroke="rgb(0,0,0)" stroke-linejoin="miter" stroke-linecap="square" stroke-miterlimit="2"/><rect x="21.213" y="184.744" width="279.746" height="54.51" transform="matrix(1,0,0,1,0,0)" fill="rgb(235,235,235)" vector-effect="non-scaling-stroke" stroke-width="1" stroke="rgb(0,0,0)" stroke-linejoin="miter" stroke-linecap="square" stroke-miterlimit="2"/><rect x="21.213" y="239.254" width="279.746" height="54.51" transform="matrix(1,0,0,1,0,0)" fill="rgb(235,235,235)" vector-effect="non-scaling-stroke" stroke-width="1" stroke="rgb(0,0,0)" stroke-linejoin="miter" stroke-linecap="square" stroke-miterlimit="2"/><g><path d=" M 96.874 115.024 L 96.874 115.024 Q 94.996 115.024 93.534 114.554 L 93.534 114.554 L 93.534 114.554 Q 92.073 114.085 90.795 112.963 L 90.795 112.963 L 90.795 112.963 Q 90.09 112.337 90.09 111.58 L 90.09 111.58 L 90.09 111.58 Q 90.09 110.98 90.534 110.523 L 90.534 110.523 L 90.534 110.523 Q 90.977 110.066 91.603 110.066 L 91.603 110.066 L 91.603 110.066 Q 92.099 110.066 92.491 110.38 L 92.491 110.38 L 92.491 110.38 Q 93.534 111.241 94.526 111.632 L 94.526 111.632 L 94.526 111.632 Q 95.517 112.023 96.874 112.023 L 96.874 112.023 L 96.874 112.023 Q 98.335 112.023 99.392 111.371 L 99.392 111.371 L 99.392 111.371 Q 100.449 110.719 100.449 109.753 L 100.449 109.753 L 100.449 109.753 Q 100.449 108.579 99.405 107.914 L 99.405 107.914 L 99.405 107.914 Q 98.362 107.248 96.091 106.909 L 96.091 106.909 L 96.091 106.909 Q 90.377 106.074 90.377 101.586 L 90.377 101.586 L 90.377 101.586 Q 90.377 99.942 91.238 98.729 L 91.238 98.729 L 91.238 98.729 Q 92.099 97.516 93.587 96.876 L 93.587 96.876 L 93.587 96.876 Q 95.074 96.237 96.9 96.237 L 96.9 96.237 L 96.9 96.237 Q 98.544 96.237 99.992 96.733 L 99.992 96.733 L 99.992 96.733 Q 101.44 97.229 102.406 98.038 L 102.406 98.038 L 102.406 98.038 Q 103.163 98.638 103.163 99.421 L 103.163 99.421 L 103.163 99.421 Q 103.163 100.021 102.719 100.477 L 102.719 100.477 L 102.719 100.477 Q 102.275 100.934 101.675 100.934 L 101.675 100.934 L 101.675 100.934 Q 101.284 100.934 100.971 100.699 L 100.971 100.699 L 100.971 100.699 Q 100.292 100.151 99.079 99.695 L 99.079 99.695 L 99.079 99.695 Q 97.866 99.238 96.9 99.238 L 96.9 99.238 L 96.9 99.238 Q 95.256 99.238 94.356 99.851 L 94.356 99.851 L 94.356 99.851 Q 93.456 100.464 93.456 101.456 L 93.456 101.456 L 93.456 101.456 Q 93.456 102.578 94.382 103.152 L 94.382 103.152 L 94.382 103.152 Q 95.309 103.726 97.292 104.091 L 97.292 104.091 L 97.292 104.091 Q 99.536 104.483 100.879 105.096 L 100.879 105.096 L 100.879 105.096 Q 102.223 105.709 102.902 106.766 L 102.902 106.766 L 102.902 106.766 Q 103.58 107.822 103.58 109.571 L 103.58 109.571 L 103.58 109.571 Q 103.58 111.215 102.654 112.454 L 102.654 112.454 L 102.654 112.454 Q 101.728 113.693 100.188 114.359 L 100.188 114.359 L 100.188 114.359 Q 98.649 115.024 96.874 115.024 L 96.874 115.024 L 96.874 115.024 Z  M 116.679 100.803 L 116.679 100.803 Q 117.357 100.803 117.801 101.26 L 117.801 101.26 L 117.801 101.26 Q 118.244 101.717 118.244 102.395 L 118.244 102.395 L 118.244 113.485 L 118.244 113.485 Q 118.244 116.877 116.418 118.429 L 116.418 118.429 L 116.418 118.429 Q 114.591 119.982 111.538 119.982 L 111.538 119.982 L 111.538 119.982 Q 110.651 119.982 109.725 119.838 L 109.725 119.838 L 109.725 119.838 Q 108.799 119.695 108.225 119.46 L 108.225 119.46 L 108.225 119.46 Q 106.946 118.912 106.946 117.946 L 106.946 117.946 L 106.946 117.946 Q 106.946 117.764 107.024 117.529 L 107.024 117.529 L 107.024 117.529 Q 107.181 116.955 107.559 116.655 L 107.559 116.655 L 107.559 116.655 Q 107.938 116.355 108.381 116.355 L 108.381 116.355 L 108.381 116.355 Q 108.642 116.355 108.877 116.433 L 108.877 116.433 L 108.877 116.433 Q 109.06 116.511 109.516 116.694 L 109.516 116.694 L 109.516 116.694 Q 109.973 116.877 110.482 116.994 L 110.482 116.994 L 110.482 116.994 Q 110.99 117.112 111.538 117.112 L 111.538 117.112 L 111.538 117.112 Q 113.391 117.112 114.265 116.316 L 114.265 116.316 L 114.265 116.316 Q 115.139 115.52 115.139 113.589 L 115.139 113.589 L 115.139 113.328 L 115.139 113.328 Q 113.782 115.024 110.912 115.024 L 110.912 115.024 L 110.912 115.024 Q 109.555 115.024 108.512 114.385 L 108.512 114.385 L 108.512 114.385 Q 107.468 113.746 106.894 112.61 L 106.894 112.61 L 106.894 112.61 Q 106.32 111.475 106.32 110.014 L 106.32 110.014 L 106.32 102.395 L 106.32 102.395 Q 106.32 101.717 106.763 101.26 L 106.763 101.26 L 106.763 101.26 Q 107.207 100.803 107.885 100.803 L 107.885 100.803 L 107.885 100.803 Q 108.564 100.803 109.007 101.26 L 109.007 101.26 L 109.007 101.26 Q 109.451 101.717 109.451 102.395 L 109.451 102.395 L 109.451 109.075 L 109.451 109.075 Q 109.451 110.719 110.169 111.436 L 110.169 111.436 L 110.169 111.436 Q 110.886 112.154 112.269 112.154 L 112.269 112.154 L 112.269 112.154 Q 113.626 112.154 114.37 111.358 L 114.37 111.358 L 114.37 111.358 Q 115.113 110.562 115.113 109.075 L 115.113 109.075 L 115.113 102.395 L 115.113 102.395 Q 115.113 101.717 115.557 101.26 L 115.557 101.26 L 115.557 101.26 Q 116 100.803 116.679 100.803 L 116.679 100.803 L 116.679 100.803 Z  M 129.099 100.543 L 129.099 100.543 Q 131.76 100.543 132.778 102.121 L 132.778 102.121 L 132.778 102.121 Q 133.796 103.7 133.796 106.492 L 133.796 106.492 L 133.796 113.171 L 133.796 113.171 Q 133.796 113.85 133.352 114.307 L 133.352 114.307 L 133.352 114.307 Q 132.909 114.763 132.23 114.763 L 132.23 114.763 L 132.23 114.763 Q 131.552 114.763 131.108 114.307 L 131.108 114.307 L 131.108 114.307 Q 130.665 113.85 130.665 113.171 L 130.665 113.171 L 130.665 106.492 L 130.665 106.492 Q 130.665 105.057 130.064 104.235 L 130.064 104.235 L 130.064 104.235 Q 129.464 103.413 128.003 103.413 L 128.003 103.413 L 128.003 103.413 Q 126.49 103.413 125.629 104.287 L 125.629 104.287 L 125.629 104.287 Q 124.768 105.161 124.768 106.492 L 124.768 106.492 L 124.768 113.171 L 124.768 113.171 Q 124.768 113.85 124.324 114.307 L 124.324 114.307 L 124.324 114.307 Q 123.88 114.763 123.202 114.763 L 123.202 114.763 L 123.202 114.763 Q 122.524 114.763 122.08 114.307 L 122.08 114.307 L 122.08 114.307 Q 121.636 113.85 121.636 113.171 L 121.636 113.171 L 121.636 102.395 L 121.636 102.395 Q 121.636 101.717 122.08 101.26 L 122.08 101.26 L 122.08 101.26 Q 122.524 100.803 123.202 100.803 L 123.202 100.803 L 123.202 100.803 Q 123.88 100.803 124.324 101.26 L 124.324 101.26 L 124.324 101.26 Q 124.768 101.717 124.768 102.395 L 124.768 102.395 L 124.768 102.839 L 124.768 102.839 Q 125.472 101.899 126.607 101.221 L 126.607 101.221 L 126.607 101.221 Q 127.742 100.543 129.099 100.543 L 129.099 100.543 L 129.099 100.543 Z  M 143.92 111.815 L 143.92 111.815 Q 144.285 111.815 144.585 112.167 L 144.585 112.167 L 144.585 112.167 Q 144.885 112.519 144.885 113.093 L 144.885 113.093 L 144.885 113.093 Q 144.885 113.798 144.115 114.28 L 144.115 114.28 L 144.115 114.28 Q 143.346 114.763 142.38 114.763 L 142.38 114.763 L 142.38 114.763 Q 140.762 114.763 139.654 114.072 L 139.654 114.072 L 139.654 114.072 Q 138.545 113.38 138.545 111.136 L 138.545 111.136 L 138.545 103.935 L 137.344 103.935 L 137.344 103.935 Q 136.718 103.935 136.301 103.517 L 136.301 103.517 L 136.301 103.517 Q 135.883 103.1 135.883 102.473 L 135.883 102.473 L 135.883 102.473 Q 135.883 101.873 136.301 101.469 L 136.301 101.469 L 136.301 101.469 Q 136.718 101.064 137.344 101.064 L 137.344 101.064 L 138.545 101.064 L 138.545 99.394 L 138.545 99.394 Q 138.545 98.716 139.001 98.259 L 139.001 98.259 L 139.001 98.259 Q 139.458 97.803 140.136 97.803 L 140.136 97.803 L 140.136 97.803 Q 140.789 97.803 141.232 98.259 L 141.232 98.259 L 141.232 98.259 Q 141.676 98.716 141.676 99.394 L 141.676 99.394 L 141.676 101.064 L 143.528 101.064 L 143.528 101.064 Q 144.155 101.064 144.572 101.482 L 144.572 101.482 L 144.572 101.482 Q 144.99 101.899 144.99 102.526 L 144.99 102.526 L 144.99 102.526 Q 144.99 103.126 144.572 103.53 L 144.572 103.53 L 144.572 103.53 Q 144.155 103.935 143.528 103.935 L 143.528 103.935 L 141.676 103.935 L 141.676 111.006 L 141.676 111.006 Q 141.676 111.554 141.963 111.802 L 141.963 111.802 L 141.963 111.802 Q 142.25 112.049 142.746 112.049 L 142.746 112.049 L 142.746 112.049 Q 142.954 112.049 143.32 111.945 L 143.32 111.945 L 143.32 111.945 Q 143.633 111.815 143.92 111.815 L 143.92 111.815 L 143.92 111.815 Z  M 159.158 100.543 L 159.158 100.543 Q 159.836 100.543 160.28 100.986 L 160.28 100.986 L 160.28 100.986 Q 160.724 101.43 160.724 102.134 L 160.724 102.134 L 160.724 113.171 L 160.724 113.171 Q 160.724 113.85 160.28 114.307 L 160.28 114.307 L 160.28 114.307 Q 159.836 114.763 159.158 114.763 L 159.158 114.763 L 159.158 114.763 Q 158.48 114.763 158.049 114.32 L 158.049 114.32 L 158.049 114.32 Q 157.618 113.876 157.592 113.198 L 157.592 113.198 L 157.592 113.198 Q 156.94 113.954 155.831 114.489 L 155.831 114.489 L 155.831 114.489 Q 154.722 115.024 153.496 115.024 L 153.496 115.024 L 153.496 115.024 Q 151.695 115.024 150.234 114.098 L 150.234 114.098 L 150.234 114.098 Q 148.773 113.171 147.925 111.528 L 147.925 111.528 L 147.925 111.528 Q 147.077 109.884 147.077 107.796 L 147.077 107.796 L 147.077 107.796 Q 147.077 105.709 147.912 104.052 L 147.912 104.052 L 147.912 104.052 Q 148.747 102.395 150.195 101.469 L 150.195 101.469 L 150.195 101.469 Q 151.643 100.543 153.391 100.543 L 153.391 100.543 L 153.391 100.543 Q 154.644 100.543 155.74 100.999 L 155.74 100.999 L 155.74 100.999 Q 156.836 101.456 157.592 102.16 L 157.592 102.16 L 157.592 102.134 L 157.592 102.134 Q 157.592 101.456 158.036 100.999 L 158.036 100.999 L 158.036 100.999 Q 158.48 100.543 159.158 100.543 L 159.158 100.543 L 159.158 100.543 Z  M 153.887 112.154 L 153.887 112.154 Q 155.583 112.154 156.653 110.914 L 156.653 110.914 L 156.653 110.914 Q 157.723 109.675 157.723 107.796 L 157.723 107.796 L 157.723 107.796 Q 157.723 105.918 156.653 104.665 L 156.653 104.665 L 156.653 104.665 Q 155.583 103.413 153.887 103.413 L 153.887 103.413 L 153.887 103.413 Q 152.217 103.413 151.147 104.665 L 151.147 104.665 L 151.147 104.665 Q 150.078 105.918 150.078 107.796 L 150.078 107.796 L 150.078 107.796 Q 150.078 109.675 151.134 110.914 L 151.134 110.914 L 151.134 110.914 Q 152.191 112.154 153.887 112.154 L 153.887 112.154 L 153.887 112.154 Z  M 174.396 112.284 L 174.396 112.284 Q 174.735 112.702 174.735 113.224 L 174.735 113.224 L 174.735 113.224 Q 174.735 113.876 174.24 114.346 L 174.24 114.346 L 174.24 114.346 Q 173.744 114.815 173.144 114.815 L 173.144 114.815 L 173.144 114.815 Q 172.387 114.815 171.865 114.137 L 171.865 114.137 L 168.734 110.249 L 165.681 114.137 L 165.681 114.137 Q 165.446 114.45 165.12 114.62 L 165.12 114.62 L 165.12 114.62 Q 164.794 114.789 164.429 114.789 L 164.429 114.789 L 164.429 114.789 Q 163.881 114.789 163.385 114.372 L 163.385 114.372 L 163.385 114.372 Q 162.889 113.954 162.889 113.406 L 162.889 113.406 L 162.889 113.406 Q 162.889 112.884 163.281 112.415 L 163.281 112.415 L 166.908 107.979 L 163.15 103.308 L 163.15 103.308 Q 162.811 102.891 162.811 102.369 L 162.811 102.369 L 162.811 102.369 Q 162.811 101.717 163.294 101.26 L 163.294 101.26 L 163.294 101.26 Q 163.776 100.803 164.403 100.803 L 164.403 100.803 L 164.403 100.803 Q 165.159 100.803 165.681 101.456 L 165.681 101.456 L 168.891 105.448 L 171.865 101.508 L 171.865 101.508 Q 172.361 100.803 173.118 100.803 L 173.118 100.803 L 173.118 100.803 Q 173.744 100.803 174.174 101.234 L 174.174 101.234 L 174.174 101.234 Q 174.605 101.665 174.605 102.212 L 174.605 102.212 L 174.605 102.212 Q 174.605 102.787 174.24 103.23 L 174.24 103.23 L 170.639 107.614 L 174.396 112.284 L 174.396 112.284 Z " fill="rgb(0,0,0)"/><path d=" M 105.328 164.716 L 105.328 164.716 Q 105.668 164.925 105.863 165.264 L 105.863 165.264 L 105.863 165.264 Q 106.059 165.603 106.059 165.969 L 106.059 165.969 L 106.059 165.969 Q 106.059 166.438 105.746 166.83 L 105.746 166.83 L 105.746 166.83 Q 105.354 167.299 104.546 167.299 L 104.546 167.299 L 104.546 167.299 Q 103.919 167.299 103.397 167.012 L 103.397 167.012 L 103.397 167.012 Q 101.519 165.943 101.519 162.655 L 101.519 162.655 L 101.519 162.655 Q 101.519 161.716 100.906 161.168 L 100.906 161.168 L 100.906 161.168 Q 100.292 160.62 99.144 160.62 L 99.144 160.62 L 94.265 160.62 L 94.265 165.682 L 94.265 165.682 Q 94.265 166.386 93.887 166.83 L 93.887 166.83 L 93.887 166.83 Q 93.508 167.273 92.882 167.273 L 92.882 167.273 L 92.882 167.273 Q 92.125 167.273 91.564 166.817 L 91.564 166.817 L 91.564 166.817 Q 91.003 166.36 91.003 165.682 L 91.003 165.682 L 91.003 150.6 L 91.003 150.6 Q 91.003 149.922 91.46 149.465 L 91.46 149.465 L 91.46 149.465 Q 91.917 149.008 92.595 149.008 L 92.595 149.008 L 100.11 149.008 L 100.11 149.008 Q 101.467 149.008 102.667 149.739 L 102.667 149.739 L 102.667 149.739 Q 103.867 150.47 104.585 151.748 L 104.585 151.748 L 104.585 151.748 Q 105.302 153.027 105.302 154.618 L 105.302 154.618 L 105.302 154.618 Q 105.302 155.923 104.598 157.162 L 104.598 157.162 L 104.598 157.162 Q 103.893 158.402 102.771 159.132 L 102.771 159.132 L 102.771 159.132 Q 104.415 160.28 104.572 162.211 L 104.572 162.211 L 104.572 162.211 Q 104.65 162.629 104.65 163.02 L 104.65 163.02 L 104.65 163.02 Q 104.754 163.829 104.859 164.181 L 104.859 164.181 L 104.859 164.181 Q 104.963 164.534 105.328 164.716 L 105.328 164.716 L 105.328 164.716 Z  M 99.979 157.932 L 99.979 157.932 Q 100.449 157.932 100.893 157.489 L 100.893 157.489 L 100.893 157.489 Q 101.336 157.045 101.623 156.301 L 101.623 156.301 L 101.623 156.301 Q 101.91 155.558 101.91 154.697 L 101.91 154.697 L 101.91 154.697 Q 101.91 153.966 101.623 153.353 L 101.623 153.353 L 101.623 153.353 Q 101.336 152.74 100.893 152.374 L 100.893 152.374 L 100.893 152.374 Q 100.449 152.009 99.979 152.009 L 99.979 152.009 L 94.265 152.009 L 94.265 157.932 L 99.979 157.932 L 99.979 157.932 Z  M 118.766 153.314 L 118.766 153.314 Q 119.445 153.314 119.888 153.77 L 119.888 153.77 L 119.888 153.77 Q 120.332 154.227 120.332 154.905 L 120.332 154.905 L 120.332 161.533 L 120.332 161.533 Q 120.332 164.351 118.779 165.943 L 118.779 165.943 L 118.779 165.943 Q 117.227 167.534 114.356 167.534 L 114.356 167.534 L 114.356 167.534 Q 111.486 167.534 109.947 165.943 L 109.947 165.943 L 109.947 165.943 Q 108.407 164.351 108.407 161.533 L 108.407 161.533 L 108.407 154.905 L 108.407 154.905 Q 108.407 154.227 108.851 153.77 L 108.851 153.77 L 108.851 153.77 Q 109.294 153.314 109.973 153.314 L 109.973 153.314 L 109.973 153.314 Q 110.651 153.314 111.095 153.77 L 111.095 153.77 L 111.095 153.77 Q 111.538 154.227 111.538 154.905 L 111.538 154.905 L 111.538 161.533 L 111.538 161.533 Q 111.538 163.125 112.243 163.894 L 112.243 163.894 L 112.243 163.894 Q 112.947 164.664 114.356 164.664 L 114.356 164.664 L 114.356 164.664 Q 115.792 164.664 116.496 163.894 L 116.496 163.894 L 116.496 163.894 Q 117.201 163.125 117.201 161.533 L 117.201 161.533 L 117.201 154.905 L 117.201 154.905 Q 117.201 154.227 117.644 153.77 L 117.644 153.77 L 117.644 153.77 Q 118.088 153.314 118.766 153.314 L 118.766 153.314 L 118.766 153.314 Z  M 127.116 165.682 L 127.116 165.682 Q 127.116 166.36 126.659 166.817 L 126.659 166.817 L 126.659 166.817 Q 126.203 167.273 125.524 167.273 L 125.524 167.273 L 125.524 167.273 Q 124.872 167.273 124.428 166.817 L 124.428 166.817 L 124.428 166.817 Q 123.985 166.36 123.985 165.682 L 123.985 165.682 L 123.985 149.556 L 123.985 149.556 Q 123.985 148.878 124.441 148.421 L 124.441 148.421 L 124.441 148.421 Q 124.898 147.965 125.576 147.965 L 125.576 147.965 L 125.576 147.965 Q 126.229 147.965 126.672 148.421 L 126.672 148.421 L 126.672 148.421 Q 127.116 148.878 127.116 149.556 L 127.116 149.556 L 127.116 165.682 L 127.116 165.682 Z  M 143.033 159.967 L 143.033 159.967 Q 143.006 160.594 142.537 160.985 L 142.537 160.985 L 142.537 160.985 Q 142.067 161.376 141.441 161.376 L 141.441 161.376 L 132.83 161.376 L 132.83 161.376 Q 133.143 162.916 134.265 163.79 L 134.265 163.79 L 134.265 163.79 Q 135.387 164.664 136.796 164.664 L 136.796 164.664 L 136.796 164.664 Q 137.866 164.664 138.466 164.468 L 138.466 164.468 L 138.466 164.468 Q 139.066 164.273 139.419 164.051 L 139.419 164.051 L 139.419 164.051 Q 139.771 163.829 139.901 163.751 L 139.901 163.751 L 139.901 163.751 Q 140.371 163.516 140.789 163.516 L 140.789 163.516 L 140.789 163.516 Q 141.337 163.516 141.728 163.907 L 141.728 163.907 L 141.728 163.907 Q 142.119 164.299 142.119 164.821 L 142.119 164.821 L 142.119 164.821 Q 142.119 165.525 141.389 166.099 L 141.389 166.099 L 141.389 166.099 Q 140.658 166.699 139.432 167.117 L 139.432 167.117 L 139.432 167.117 Q 138.205 167.534 136.953 167.534 L 136.953 167.534 L 136.953 167.534 Q 134.761 167.534 133.13 166.621 L 133.13 166.621 L 133.13 166.621 Q 131.499 165.708 130.612 164.103 L 130.612 164.103 L 130.612 164.103 Q 129.725 162.498 129.725 160.489 L 129.725 160.489 L 129.725 160.489 Q 129.725 158.245 130.665 156.549 L 130.665 156.549 L 130.665 156.549 Q 131.604 154.853 133.143 153.953 L 133.143 153.953 L 133.143 153.953 Q 134.683 153.053 136.431 153.053 L 136.431 153.053 L 136.431 153.053 Q 138.153 153.053 139.68 153.992 L 139.68 153.992 L 139.68 153.992 Q 141.206 154.931 142.119 156.523 L 142.119 156.523 L 142.119 156.523 Q 143.033 158.115 143.033 159.967 L 143.033 159.967 L 143.033 159.967 Z  M 136.431 155.923 L 136.431 155.923 Q 133.404 155.923 132.856 158.767 L 132.856 158.767 L 139.693 158.767 L 139.693 158.584 L 139.693 158.584 Q 139.588 157.489 138.623 156.706 L 138.623 156.706 L 138.623 156.706 Q 137.657 155.923 136.431 155.923 L 136.431 155.923 L 136.431 155.923 Z  M 144.833 165.108 L 144.833 165.108 Q 144.598 164.795 144.598 164.325 L 144.598 164.325 L 144.598 164.325 Q 144.598 163.646 145.277 163.177 L 145.277 163.177 L 145.277 163.177 Q 145.642 162.942 146.033 162.942 L 146.033 162.942 L 146.033 162.942 Q 146.581 162.942 147.077 163.438 L 147.077 163.438 L 147.077 163.438 Q 147.86 164.247 148.708 164.638 L 148.708 164.638 L 148.708 164.638 Q 149.556 165.029 150.756 165.029 L 150.756 165.029 L 150.756 165.029 Q 152.791 164.951 152.791 163.49 L 152.791 163.49 L 152.791 163.49 Q 152.791 162.733 152.1 162.342 L 152.1 162.342 L 152.1 162.342 Q 151.408 161.95 149.947 161.559 L 149.947 161.559 L 149.947 161.559 Q 148.434 161.142 147.481 160.724 L 147.481 160.724 L 147.481 160.724 Q 146.529 160.307 145.838 159.459 L 145.838 159.459 L 145.838 159.459 Q 145.146 158.611 145.146 157.175 L 145.146 157.175 L 145.146 157.175 Q 145.146 155.923 145.864 154.997 L 145.864 154.997 L 145.864 154.997 Q 146.581 154.07 147.742 153.562 L 147.742 153.562 L 147.742 153.562 Q 148.903 153.053 150.208 153.053 L 150.208 153.053 L 150.208 153.053 Q 151.539 153.053 152.87 153.549 L 152.87 153.549 L 152.87 153.549 Q 154.2 154.044 154.957 155.01 L 154.957 155.01 L 154.957 155.01 Q 155.296 155.427 155.296 155.949 L 155.296 155.949 L 155.296 155.949 Q 155.296 156.549 154.8 156.941 L 154.8 156.941 L 154.8 156.941 Q 154.435 157.228 153.965 157.228 L 153.965 157.228 L 153.965 157.228 Q 153.391 157.228 153.026 156.862 L 153.026 156.862 L 153.026 156.862 Q 152.556 156.288 151.813 155.949 L 151.813 155.949 L 151.813 155.949 Q 151.069 155.61 150.13 155.61 L 150.13 155.61 L 150.13 155.61 Q 148.147 155.61 148.147 157.045 L 148.147 157.045 L 148.147 157.045 Q 148.147 157.619 148.512 157.971 L 148.512 157.971 L 148.512 157.971 Q 148.877 158.324 149.438 158.519 L 149.438 158.519 L 149.438 158.519 Q 149.999 158.715 151.017 159.002 L 151.017 159.002 L 151.017 159.002 Q 152.426 159.393 153.365 159.811 L 153.365 159.811 L 153.365 159.811 Q 154.305 160.228 154.957 161.089 L 154.957 161.089 L 154.957 161.089 Q 155.609 161.95 155.609 163.359 L 155.609 163.359 L 155.609 163.359 Q 155.609 164.638 154.853 165.59 L 154.853 165.59 L 154.853 165.59 Q 154.096 166.543 152.909 167.039 L 152.909 167.039 L 152.909 167.039 Q 151.721 167.534 150.469 167.534 L 150.469 167.534 L 150.469 167.534 Q 148.747 167.534 147.26 166.96 L 147.26 166.96 L 147.26 166.96 Q 145.772 166.386 144.833 165.108 L 144.833 165.108 L 144.833 165.108 Z " fill="rgb(0,0,0)"/><path d=" M 105.328 219.748 L 105.328 219.748 Q 105.459 220.088 105.459 220.375 L 105.459 220.375 L 105.459 220.375 Q 105.459 221.053 105.015 221.484 L 105.015 221.484 L 105.015 221.484 Q 104.572 221.914 103.998 221.914 L 103.998 221.914 L 103.998 221.914 Q 103.528 221.914 103.15 221.627 L 103.15 221.627 L 103.15 221.627 Q 102.771 221.34 102.562 220.844 L 102.562 220.844 L 101.206 217.687 L 93.43 217.687 L 92.073 220.87 L 92.073 220.87 Q 91.89 221.366 91.512 221.64 L 91.512 221.64 L 91.512 221.64 Q 91.134 221.914 90.69 221.914 L 90.69 221.914 L 90.69 221.914 Q 90.012 221.914 89.66 221.549 L 89.66 221.549 L 89.66 221.549 Q 89.307 221.183 89.307 220.557 L 89.307 220.557 L 89.307 220.557 Q 89.307 220.322 89.386 220.061 L 89.386 220.061 L 95.883 204.458 L 95.883 204.458 Q 96.091 203.936 96.509 203.649 L 96.509 203.649 L 96.509 203.649 Q 96.926 203.362 97.448 203.414 L 97.448 203.414 L 97.448 203.414 Q 97.918 203.414 98.322 203.688 L 98.322 203.688 L 98.322 203.688 Q 98.727 203.962 98.909 204.458 L 98.909 204.458 L 105.328 219.748 L 105.328 219.748 Z  M 97.292 208.581 L 94.709 214.686 L 99.927 214.686 L 97.292 208.581 L 97.292 208.581 Z  M 114.643 207.563 L 114.643 207.563 Q 116.444 207.563 117.905 208.489 L 117.905 208.489 L 117.905 208.489 Q 119.366 209.416 120.214 211.059 L 120.214 211.059 L 120.214 211.059 Q 121.062 212.703 121.062 214.791 L 121.062 214.791 L 121.062 214.791 Q 121.062 216.878 120.227 218.535 L 120.227 218.535 L 120.227 218.535 Q 119.392 220.192 117.944 221.118 L 117.944 221.118 L 117.944 221.118 Q 116.496 222.045 114.748 222.045 L 114.748 222.045 L 114.748 222.045 Q 113.495 222.045 112.386 221.536 L 112.386 221.536 L 112.386 221.536 Q 111.278 221.027 110.547 220.296 L 110.547 220.296 L 110.547 225.411 L 110.547 225.411 Q 110.547 226.089 110.103 226.546 L 110.103 226.546 L 110.103 226.546 Q 109.66 227.002 108.981 227.002 L 108.981 227.002 L 108.981 227.002 Q 108.303 227.002 107.859 226.559 L 107.859 226.559 L 107.859 226.559 Q 107.416 226.115 107.416 225.411 L 107.416 225.411 L 107.416 209.416 L 107.416 209.416 Q 107.416 208.737 107.859 208.281 L 107.859 208.281 L 107.859 208.281 Q 108.303 207.824 108.981 207.824 L 108.981 207.824 L 108.981 207.824 Q 109.66 207.824 110.103 208.281 L 110.103 208.281 L 110.103 208.281 Q 110.547 208.737 110.547 209.416 L 110.547 209.416 L 110.547 209.52 L 110.547 209.52 Q 111.173 208.737 112.295 208.15 L 112.295 208.15 L 112.295 208.15 Q 113.417 207.563 114.643 207.563 L 114.643 207.563 L 114.643 207.563 Z  M 114.252 219.174 L 114.252 219.174 Q 115.922 219.174 116.992 217.922 L 116.992 217.922 L 116.992 217.922 Q 118.062 216.669 118.062 214.791 L 118.062 214.791 L 118.062 214.791 Q 118.062 212.912 117.005 211.673 L 117.005 211.673 L 117.005 211.673 Q 115.948 210.433 114.252 210.433 L 114.252 210.433 L 114.252 210.433 Q 112.556 210.433 111.486 211.673 L 111.486 211.673 L 111.486 211.673 Q 110.416 212.912 110.416 214.791 L 110.416 214.791 L 110.416 214.791 Q 110.416 216.669 111.486 217.922 L 111.486 217.922 L 111.486 217.922 Q 112.556 219.174 114.252 219.174 L 114.252 219.174 L 114.252 219.174 Z  M 130.899 207.563 L 130.899 207.563 Q 132.7 207.563 134.161 208.489 L 134.161 208.489 L 134.161 208.489 Q 135.622 209.416 136.47 211.059 L 136.47 211.059 L 136.47 211.059 Q 137.318 212.703 137.318 214.791 L 137.318 214.791 L 137.318 214.791 Q 137.318 216.878 136.483 218.535 L 136.483 218.535 L 136.483 218.535 Q 135.648 220.192 134.2 221.118 L 134.2 221.118 L 134.2 221.118 Q 132.752 222.045 131.004 222.045 L 131.004 222.045 L 131.004 222.045 Q 129.751 222.045 128.642 221.536 L 128.642 221.536 L 128.642 221.536 Q 127.533 221.027 126.803 220.296 L 126.803 220.296 L 126.803 225.411 L 126.803 225.411 Q 126.803 226.089 126.359 226.546 L 126.359 226.546 L 126.359 226.546 Q 125.916 227.002 125.237 227.002 L 125.237 227.002 L 125.237 227.002 Q 124.559 227.002 124.115 226.559 L 124.115 226.559 L 124.115 226.559 Q 123.672 226.115 123.672 225.411 L 123.672 225.411 L 123.672 209.416 L 123.672 209.416 Q 123.672 208.737 124.115 208.281 L 124.115 208.281 L 124.115 208.281 Q 124.559 207.824 125.237 207.824 L 125.237 207.824 L 125.237 207.824 Q 125.916 207.824 126.359 208.281 L 126.359 208.281 L 126.359 208.281 Q 126.803 208.737 126.803 209.416 L 126.803 209.416 L 126.803 209.52 L 126.803 209.52 Q 127.429 208.737 128.551 208.15 L 128.551 208.15 L 128.551 208.15 Q 129.673 207.563 130.899 207.563 L 130.899 207.563 L 130.899 207.563 Z  M 130.508 219.174 L 130.508 219.174 Q 132.178 219.174 133.248 217.922 L 133.248 217.922 L 133.248 217.922 Q 134.318 216.669 134.318 214.791 L 134.318 214.791 L 134.318 214.791 Q 134.318 212.912 133.261 211.673 L 133.261 211.673 L 133.261 211.673 Q 132.204 210.433 130.508 210.433 L 130.508 210.433 L 130.508 210.433 Q 128.812 210.433 127.742 211.673 L 127.742 211.673 L 127.742 211.673 Q 126.672 212.912 126.672 214.791 L 126.672 214.791 L 126.672 214.791 Q 126.672 216.669 127.742 217.922 L 127.742 217.922 L 127.742 217.922 Q 128.812 219.174 130.508 219.174 L 130.508 219.174 L 130.508 219.174 Z  M 143.32 220.192 L 143.32 220.192 Q 143.32 220.87 142.863 221.327 L 142.863 221.327 L 142.863 221.327 Q 142.406 221.784 141.728 221.784 L 141.728 221.784 L 141.728 221.784 Q 141.076 221.784 140.632 221.327 L 140.632 221.327 L 140.632 221.327 Q 140.188 220.87 140.188 220.192 L 140.188 220.192 L 140.188 204.067 L 140.188 204.067 Q 140.188 203.388 140.645 202.932 L 140.645 202.932 L 140.645 202.932 Q 141.102 202.475 141.78 202.475 L 141.78 202.475 L 141.78 202.475 Q 142.432 202.475 142.876 202.932 L 142.876 202.932 L 142.876 202.932 Q 143.32 203.388 143.32 204.067 L 143.32 204.067 L 143.32 220.192 L 143.32 220.192 Z  M 149.921 220.192 L 149.921 220.192 Q 149.921 220.87 149.477 221.327 L 149.477 221.327 L 149.477 221.327 Q 149.034 221.784 148.356 221.784 L 148.356 221.784 L 148.356 221.784 Q 147.677 221.784 147.234 221.327 L 147.234 221.327 L 147.234 221.327 Q 146.79 220.87 146.79 220.192 L 146.79 220.192 L 146.79 209.416 L 146.79 209.416 Q 146.79 208.737 147.234 208.281 L 147.234 208.281 L 147.234 208.281 Q 147.677 207.824 148.356 207.824 L 148.356 207.824 L 148.356 207.824 Q 149.034 207.824 149.477 208.281 L 149.477 208.281 L 149.477 208.281 Q 149.921 208.737 149.921 209.416 L 149.921 209.416 L 149.921 220.192 L 149.921 220.192 Z  M 148.329 206.128 L 148.329 206.128 Q 147.442 206.128 147.077 205.841 L 147.077 205.841 L 147.077 205.841 Q 146.712 205.554 146.712 204.823 L 146.712 204.823 L 146.712 204.327 L 146.712 204.327 Q 146.712 203.597 147.103 203.31 L 147.103 203.31 L 147.103 203.31 Q 147.494 203.023 148.356 203.023 L 148.356 203.023 L 148.356 203.023 Q 149.269 203.023 149.634 203.31 L 149.634 203.31 L 149.634 203.31 Q 149.999 203.597 149.999 204.327 L 149.999 204.327 L 149.999 204.823 L 149.999 204.823 Q 149.999 205.58 149.621 205.854 L 149.621 205.854 L 149.621 205.854 Q 149.243 206.128 148.329 206.128 L 148.329 206.128 L 148.329 206.128 Z  M 159.21 207.563 L 159.21 207.563 Q 161.428 207.563 162.785 208.254 L 162.785 208.254 L 162.785 208.254 Q 164.142 208.946 164.142 210.094 L 164.142 210.094 L 164.142 210.094 Q 164.142 210.668 163.802 211.099 L 163.802 211.099 L 163.802 211.099 Q 163.463 211.529 162.915 211.529 L 162.915 211.529 L 162.915 211.529 Q 162.498 211.529 162.237 211.412 L 162.237 211.412 L 162.237 211.412 Q 161.976 211.294 161.728 211.099 L 161.728 211.099 L 161.728 211.099 Q 161.48 210.903 161.245 210.772 L 161.245 210.772 L 161.245 210.772 Q 160.984 210.642 160.476 210.538 L 160.476 210.538 L 160.476 210.538 Q 159.967 210.433 159.654 210.433 L 159.654 210.433 L 159.654 210.433 Q 157.697 210.433 156.588 211.647 L 156.588 211.647 L 156.588 211.647 Q 155.479 212.86 155.479 214.817 L 155.479 214.817 L 155.479 214.817 Q 155.479 216.696 156.601 217.935 L 156.601 217.935 L 156.601 217.935 Q 157.723 219.174 159.471 219.174 L 159.471 219.174 L 159.471 219.174 Q 160.75 219.174 161.376 218.861 L 161.376 218.861 L 161.376 218.861 Q 161.532 218.783 161.806 218.587 L 161.806 218.587 L 161.806 218.587 Q 162.08 218.392 162.315 218.287 L 162.315 218.287 L 162.315 218.287 Q 162.55 218.183 162.889 218.183 L 162.889 218.183 L 162.889 218.183 Q 163.542 218.183 163.92 218.6 L 163.92 218.6 L 163.92 218.6 Q 164.298 219.018 164.298 219.67 L 164.298 219.67 L 164.298 219.67 Q 164.298 220.296 163.568 220.844 L 163.568 220.844 L 163.568 220.844 Q 162.837 221.392 161.637 221.718 L 161.637 221.718 L 161.637 221.718 Q 160.437 222.045 159.08 222.045 L 159.08 222.045 L 159.08 222.045 Q 157.071 222.045 155.544 221.105 L 155.544 221.105 L 155.544 221.105 Q 154.018 220.166 153.183 218.509 L 153.183 218.509 L 153.183 218.509 Q 152.348 216.852 152.348 214.817 L 152.348 214.817 L 152.348 214.817 Q 152.348 212.703 153.222 211.059 L 153.222 211.059 L 153.222 211.059 Q 154.096 209.416 155.662 208.489 L 155.662 208.489 L 155.662 208.489 Q 157.227 207.563 159.21 207.563 L 159.21 207.563 L 159.21 207.563 Z  M 177.867 207.563 L 177.867 207.563 Q 178.545 207.563 178.989 208.007 L 178.989 208.007 L 178.989 208.007 Q 179.432 208.45 179.432 209.155 L 179.432 209.155 L 179.432 220.192 L 179.432 220.192 Q 179.432 220.87 178.989 221.327 L 178.989 221.327 L 178.989 221.327 Q 178.545 221.784 177.867 221.784 L 177.867 221.784 L 177.867 221.784 Q 177.188 221.784 176.758 221.34 L 176.758 221.34 L 176.758 221.34 Q 176.327 220.896 176.301 220.218 L 176.301 220.218 L 176.301 220.218 Q 175.649 220.975 174.54 221.51 L 174.54 221.51 L 174.54 221.51 Q 173.431 222.045 172.204 222.045 L 172.204 222.045 L 172.204 222.045 Q 170.404 222.045 168.943 221.118 L 168.943 221.118 L 168.943 221.118 Q 167.482 220.192 166.634 218.548 L 166.634 218.548 L 166.634 218.548 Q 165.786 216.904 165.786 214.817 L 165.786 214.817 L 165.786 214.817 Q 165.786 212.729 166.621 211.072 L 166.621 211.072 L 166.621 211.072 Q 167.455 209.416 168.904 208.489 L 168.904 208.489 L 168.904 208.489 Q 170.352 207.563 172.1 207.563 L 172.1 207.563 L 172.1 207.563 Q 173.352 207.563 174.448 208.02 L 174.448 208.02 L 174.448 208.02 Q 175.544 208.476 176.301 209.181 L 176.301 209.181 L 176.301 209.155 L 176.301 209.155 Q 176.301 208.476 176.745 208.02 L 176.745 208.02 L 176.745 208.02 Q 177.188 207.563 177.867 207.563 L 177.867 207.563 L 177.867 207.563 Z  M 172.596 219.174 L 172.596 219.174 Q 174.292 219.174 175.362 217.935 L 175.362 217.935 L 175.362 217.935 Q 176.431 216.696 176.431 214.817 L 176.431 214.817 L 176.431 214.817 Q 176.431 212.938 175.362 211.686 L 175.362 211.686 L 175.362 211.686 Q 174.292 210.433 172.596 210.433 L 172.596 210.433 L 172.596 210.433 Q 170.926 210.433 169.856 211.686 L 169.856 211.686 L 169.856 211.686 Q 168.786 212.938 168.786 214.817 L 168.786 214.817 L 168.786 214.817 Q 168.786 216.696 169.843 217.935 L 169.843 217.935 L 169.843 217.935 Q 170.9 219.174 172.596 219.174 L 172.596 219.174 L 172.596 219.174 Z  M 189.556 218.835 L 189.556 218.835 Q 189.921 218.835 190.222 219.187 L 190.222 219.187 L 190.222 219.187 Q 190.522 219.54 190.522 220.114 L 190.522 220.114 L 190.522 220.114 Q 190.522 220.818 189.752 221.301 L 189.752 221.301 L 189.752 221.301 Q 188.982 221.784 188.017 221.784 L 188.017 221.784 L 188.017 221.784 Q 186.399 221.784 185.29 221.092 L 185.29 221.092 L 185.29 221.092 Q 184.181 220.401 184.181 218.157 L 184.181 218.157 L 184.181 210.955 L 182.981 210.955 L 182.981 210.955 Q 182.355 210.955 181.937 210.538 L 181.937 210.538 L 181.937 210.538 Q 181.52 210.12 181.52 209.494 L 181.52 209.494 L 181.52 209.494 Q 181.52 208.894 181.937 208.489 L 181.937 208.489 L 181.937 208.489 Q 182.355 208.085 182.981 208.085 L 182.981 208.085 L 184.181 208.085 L 184.181 206.415 L 184.181 206.415 Q 184.181 205.737 184.638 205.28 L 184.638 205.28 L 184.638 205.28 Q 185.094 204.823 185.773 204.823 L 185.773 204.823 L 185.773 204.823 Q 186.425 204.823 186.869 205.28 L 186.869 205.28 L 186.869 205.28 Q 187.312 205.737 187.312 206.415 L 187.312 206.415 L 187.312 208.085 L 189.165 208.085 L 189.165 208.085 Q 189.791 208.085 190.208 208.502 L 190.208 208.502 L 190.208 208.502 Q 190.626 208.92 190.626 209.546 L 190.626 209.546 L 190.626 209.546 Q 190.626 210.146 190.208 210.551 L 190.208 210.551 L 190.208 210.551 Q 189.791 210.955 189.165 210.955 L 189.165 210.955 L 187.312 210.955 L 187.312 218.026 L 187.312 218.026 Q 187.312 218.574 187.599 218.822 L 187.599 218.822 L 187.599 218.822 Q 187.886 219.07 188.382 219.07 L 188.382 219.07 L 188.382 219.07 Q 188.591 219.07 188.956 218.966 L 188.956 218.966 L 188.956 218.966 Q 189.269 218.835 189.556 218.835 L 189.556 218.835 L 189.556 218.835 Z  M 196.445 220.192 L 196.445 220.192 Q 196.445 220.87 196.001 221.327 L 196.001 221.327 L 196.001 221.327 Q 195.558 221.784 194.879 221.784 L 194.879 221.784 L 194.879 221.784 Q 194.201 221.784 193.757 221.327 L 193.757 221.327 L 193.757 221.327 Q 193.314 220.87 193.314 220.192 L 193.314 220.192 L 193.314 209.416 L 193.314 209.416 Q 193.314 208.737 193.757 208.281 L 193.757 208.281 L 193.757 208.281 Q 194.201 207.824 194.879 207.824 L 194.879 207.824 L 194.879 207.824 Q 195.558 207.824 196.001 208.281 L 196.001 208.281 L 196.001 208.281 Q 196.445 208.737 196.445 209.416 L 196.445 209.416 L 196.445 220.192 L 196.445 220.192 Z  M 194.853 206.128 L 194.853 206.128 Q 193.966 206.128 193.601 205.841 L 193.601 205.841 L 193.601 205.841 Q 193.235 205.554 193.235 204.823 L 193.235 204.823 L 193.235 204.327 L 193.235 204.327 Q 193.235 203.597 193.627 203.31 L 193.627 203.31 L 193.627 203.31 Q 194.018 203.023 194.879 203.023 L 194.879 203.023 L 194.879 203.023 Q 195.792 203.023 196.158 203.31 L 196.158 203.31 L 196.158 203.31 Q 196.523 203.597 196.523 204.327 L 196.523 204.327 L 196.523 204.823 L 196.523 204.823 Q 196.523 205.58 196.145 205.854 L 196.145 205.854 L 196.145 205.854 Q 195.766 206.128 194.853 206.128 L 194.853 206.128 L 194.853 206.128 Z  M 213.066 214.817 L 213.066 214.817 Q 213.066 216.904 212.127 218.561 L 212.127 218.561 L 212.127 218.561 Q 211.187 220.218 209.556 221.131 L 209.556 221.131 L 209.556 221.131 Q 207.926 222.045 205.969 222.045 L 205.969 222.045 L 205.969 222.045 Q 203.986 222.045 202.368 221.131 L 202.368 221.131 L 202.368 221.131 Q 200.75 220.218 199.811 218.561 L 199.811 218.561 L 199.811 218.561 Q 198.871 216.904 198.871 214.817 L 198.871 214.817 L 198.871 214.817 Q 198.871 212.729 199.811 211.072 L 199.811 211.072 L 199.811 211.072 Q 200.75 209.416 202.368 208.489 L 202.368 208.489 L 202.368 208.489 Q 203.986 207.563 205.969 207.563 L 205.969 207.563 L 205.969 207.563 Q 207.926 207.563 209.556 208.489 L 209.556 208.489 L 209.556 208.489 Q 211.187 209.416 212.127 211.072 L 212.127 211.072 L 212.127 211.072 Q 213.066 212.729 213.066 214.817 L 213.066 214.817 L 213.066 214.817 Z  M 209.935 214.817 L 209.935 214.817 Q 209.935 213.538 209.4 212.534 L 209.4 212.534 L 209.4 212.534 Q 208.865 211.529 207.965 210.981 L 207.965 210.981 L 207.965 210.981 Q 207.064 210.433 205.969 210.433 L 205.969 210.433 L 205.969 210.433 Q 204.873 210.433 203.972 210.981 L 203.972 210.981 L 203.972 210.981 Q 203.072 211.529 202.537 212.534 L 202.537 212.534 L 202.537 212.534 Q 202.002 213.538 202.002 214.817 L 202.002 214.817 L 202.002 214.817 Q 202.002 216.095 202.537 217.087 L 202.537 217.087 L 202.537 217.087 Q 203.072 218.078 203.972 218.626 L 203.972 218.626 L 203.972 218.626 Q 204.873 219.174 205.969 219.174 L 205.969 219.174 L 205.969 219.174 Q 207.064 219.174 207.965 218.626 L 207.965 218.626 L 207.965 218.626 Q 208.865 218.078 209.4 217.087 L 209.4 217.087 L 209.4 217.087 Q 209.935 216.095 209.935 214.817 L 209.935 214.817 L 209.935 214.817 Z  M 223.138 207.563 L 223.138 207.563 Q 225.799 207.563 226.817 209.142 L 226.817 209.142 L 226.817 209.142 Q 227.834 210.72 227.834 213.512 L 227.834 213.512 L 227.834 220.192 L 227.834 220.192 Q 227.834 220.87 227.391 221.327 L 227.391 221.327 L 227.391 221.327 Q 226.947 221.784 226.269 221.784 L 226.269 221.784 L 226.269 221.784 Q 225.59 221.784 225.147 221.327 L 225.147 221.327 L 225.147 221.327 Q 224.703 220.87 224.703 220.192 L 224.703 220.192 L 224.703 213.512 L 224.703 213.512 Q 224.703 212.077 224.103 211.255 L 224.103 211.255 L 224.103 211.255 Q 223.503 210.433 222.042 210.433 L 222.042 210.433 L 222.042 210.433 Q 220.528 210.433 219.667 211.307 L 219.667 211.307 L 219.667 211.307 Q 218.806 212.181 218.806 213.512 L 218.806 213.512 L 218.806 220.192 L 218.806 220.192 Q 218.806 220.87 218.363 221.327 L 218.363 221.327 L 218.363 221.327 Q 217.919 221.784 217.241 221.784 L 217.241 221.784 L 217.241 221.784 Q 216.562 221.784 216.119 221.327 L 216.119 221.327 L 216.119 221.327 Q 215.675 220.87 215.675 220.192 L 215.675 220.192 L 215.675 209.416 L 215.675 209.416 Q 215.675 208.737 216.119 208.281 L 216.119 208.281 L 216.119 208.281 Q 216.562 207.824 217.241 207.824 L 217.241 207.824 L 217.241 207.824 Q 217.919 207.824 218.363 208.281 L 218.363 208.281 L 218.363 208.281 Q 218.806 208.737 218.806 209.416 L 218.806 209.416 L 218.806 209.859 L 218.806 209.859 Q 219.511 208.92 220.646 208.241 L 220.646 208.241 L 220.646 208.241 Q 221.781 207.563 223.138 207.563 L 223.138 207.563 L 223.138 207.563 Z  M 230.418 219.618 L 230.418 219.618 Q 230.183 219.305 230.183 218.835 L 230.183 218.835 L 230.183 218.835 Q 230.183 218.157 230.861 217.687 L 230.861 217.687 L 230.861 217.687 Q 231.227 217.452 231.618 217.452 L 231.618 217.452 L 231.618 217.452 Q 232.166 217.452 232.662 217.948 L 232.662 217.948 L 232.662 217.948 Q 233.444 218.757 234.292 219.148 L 234.292 219.148 L 234.292 219.148 Q 235.14 219.54 236.341 219.54 L 236.341 219.54 L 236.341 219.54 Q 238.376 219.461 238.376 218 L 238.376 218 L 238.376 218 Q 238.376 217.243 237.684 216.852 L 237.684 216.852 L 237.684 216.852 Q 236.993 216.461 235.532 216.069 L 235.532 216.069 L 235.532 216.069 Q 234.018 215.652 233.066 215.234 L 233.066 215.234 L 233.066 215.234 Q 232.114 214.817 231.422 213.969 L 231.422 213.969 L 231.422 213.969 Q 230.731 213.121 230.731 211.686 L 230.731 211.686 L 230.731 211.686 Q 230.731 210.433 231.448 209.507 L 231.448 209.507 L 231.448 209.507 Q 232.166 208.581 233.327 208.072 L 233.327 208.072 L 233.327 208.072 Q 234.488 207.563 235.793 207.563 L 235.793 207.563 L 235.793 207.563 Q 237.124 207.563 238.454 208.059 L 238.454 208.059 L 238.454 208.059 Q 239.785 208.555 240.542 209.52 L 240.542 209.52 L 240.542 209.52 Q 240.881 209.937 240.881 210.459 L 240.881 210.459 L 240.881 210.459 Q 240.881 211.059 240.385 211.451 L 240.385 211.451 L 240.385 211.451 Q 240.02 211.738 239.55 211.738 L 239.55 211.738 L 239.55 211.738 Q 238.976 211.738 238.611 211.373 L 238.611 211.373 L 238.611 211.373 Q 238.141 210.799 237.397 210.459 L 237.397 210.459 L 237.397 210.459 Q 236.654 210.12 235.714 210.12 L 235.714 210.12 L 235.714 210.12 Q 233.731 210.12 233.731 211.555 L 233.731 211.555 L 233.731 211.555 Q 233.731 212.129 234.097 212.482 L 234.097 212.482 L 234.097 212.482 Q 234.462 212.834 235.023 213.029 L 235.023 213.029 L 235.023 213.029 Q 235.584 213.225 236.602 213.512 L 236.602 213.512 L 236.602 213.512 Q 238.011 213.904 238.95 214.321 L 238.95 214.321 L 238.95 214.321 Q 239.889 214.739 240.542 215.6 L 240.542 215.6 L 240.542 215.6 Q 241.194 216.461 241.194 217.87 L 241.194 217.87 L 241.194 217.87 Q 241.194 219.148 240.437 220.101 L 240.437 220.101 L 240.437 220.101 Q 239.681 221.053 238.493 221.549 L 238.493 221.549 L 238.493 221.549 Q 237.306 222.045 236.054 222.045 L 236.054 222.045 L 236.054 222.045 Q 234.332 222.045 232.844 221.471 L 232.844 221.471 L 232.844 221.471 Q 231.357 220.896 230.418 219.618 L 230.418 219.618 L 230.418 219.618 Z " fill="rgb(0,0,0)"/><path d=" M 98.044 258.029 L 98.044 258.029 Q 99.375 258.029 100.575 258.825 L 100.575 258.825 L 100.575 258.825 Q 101.775 259.621 102.506 260.964 L 102.506 260.964 L 102.506 260.964 Q 103.237 262.308 103.237 263.9 L 103.237 263.9 L 103.237 263.9 Q 103.237 265.465 102.506 266.822 L 102.506 266.822 L 102.506 266.822 Q 101.775 268.179 100.575 268.975 L 100.575 268.975 L 100.575 268.975 Q 99.375 269.771 98.044 269.771 L 98.044 269.771 L 93.504 269.771 L 93.504 274.702 L 93.504 274.702 Q 93.504 275.407 93.087 275.85 L 93.087 275.85 L 93.087 275.85 Q 92.669 276.294 91.991 276.294 L 91.991 276.294 L 91.991 276.294 Q 91.338 276.294 90.921 275.837 L 90.921 275.837 L 90.921 275.837 Q 90.503 275.381 90.503 274.702 L 90.503 274.702 L 90.503 259.621 L 90.503 259.621 Q 90.503 258.942 90.96 258.485 L 90.96 258.485 L 90.96 258.485 Q 91.417 258.029 92.095 258.029 L 92.095 258.029 L 98.044 258.029 L 98.044 258.029 Z  M 98.044 266.796 L 98.044 266.796 Q 98.54 266.796 99.023 266.379 L 99.023 266.379 L 99.023 266.379 Q 99.505 265.961 99.805 265.296 L 99.805 265.296 L 99.805 265.296 Q 100.106 264.63 100.106 263.9 L 100.106 263.9 L 100.106 263.9 Q 100.106 263.169 99.805 262.504 L 99.805 262.504 L 99.805 262.504 Q 99.505 261.838 99.023 261.434 L 99.023 261.434 L 99.023 261.434 Q 98.54 261.03 98.044 261.03 L 98.044 261.03 L 93.504 261.03 L 93.504 266.796 L 98.044 266.796 L 98.044 266.796 Z  M 113.23 262.073 L 113.23 262.073 Q 114.013 262.073 114.548 262.517 L 114.548 262.517 L 114.548 262.517 Q 115.083 262.96 115.083 263.561 L 115.083 263.561 L 115.083 263.561 Q 115.083 264.369 114.665 264.774 L 114.665 264.774 L 114.665 264.774 Q 114.248 265.178 113.674 265.178 L 113.674 265.178 L 113.674 265.178 Q 113.282 265.178 112.787 264.996 L 112.787 264.996 L 112.787 264.996 Q 112.708 264.97 112.434 264.891 L 112.434 264.891 L 112.434 264.891 Q 112.16 264.813 111.847 264.813 L 111.847 264.813 L 111.847 264.813 Q 111.169 264.813 110.543 265.23 L 110.543 265.23 L 110.543 265.23 Q 109.916 265.648 109.512 266.496 L 109.512 266.496 L 109.512 266.496 Q 109.108 267.344 109.108 268.518 L 109.108 268.518 L 109.108 274.702 L 109.108 274.702 Q 109.108 275.381 108.664 275.837 L 108.664 275.837 L 108.664 275.837 Q 108.22 276.294 107.542 276.294 L 107.542 276.294 L 107.542 276.294 Q 106.864 276.294 106.42 275.837 L 106.42 275.837 L 106.42 275.837 Q 105.976 275.381 105.976 274.702 L 105.976 274.702 L 105.976 263.926 L 105.976 263.926 Q 105.976 263.247 106.42 262.791 L 106.42 262.791 L 106.42 262.791 Q 106.864 262.334 107.542 262.334 L 107.542 262.334 L 107.542 262.334 Q 108.22 262.334 108.664 262.791 L 108.664 262.791 L 108.664 262.791 Q 109.108 263.247 109.108 263.926 L 109.108 263.926 L 109.108 264.265 L 109.108 264.265 Q 109.708 263.195 110.83 262.634 L 110.83 262.634 L 110.83 262.634 Q 111.952 262.073 113.23 262.073 L 113.23 262.073 L 113.23 262.073 Z  M 130.138 269.327 L 130.138 269.327 Q 130.138 271.414 129.199 273.071 L 129.199 273.071 L 129.199 273.071 Q 128.26 274.728 126.629 275.642 L 126.629 275.642 L 126.629 275.642 Q 124.998 276.555 123.041 276.555 L 123.041 276.555 L 123.041 276.555 Q 121.058 276.555 119.44 275.642 L 119.44 275.642 L 119.44 275.642 Q 117.823 274.728 116.883 273.071 L 116.883 273.071 L 116.883 273.071 Q 115.944 271.414 115.944 269.327 L 115.944 269.327 L 115.944 269.327 Q 115.944 267.24 116.883 265.583 L 116.883 265.583 L 116.883 265.583 Q 117.823 263.926 119.44 263 L 119.44 263 L 119.44 263 Q 121.058 262.073 123.041 262.073 L 123.041 262.073 L 123.041 262.073 Q 124.998 262.073 126.629 263 L 126.629 263 L 126.629 263 Q 128.26 263.926 129.199 265.583 L 129.199 265.583 L 129.199 265.583 Q 130.138 267.24 130.138 269.327 L 130.138 269.327 L 130.138 269.327 Z  M 127.007 269.327 L 127.007 269.327 Q 127.007 268.049 126.472 267.044 L 126.472 267.044 L 126.472 267.044 Q 125.937 266.039 125.037 265.491 L 125.037 265.491 L 125.037 265.491 Q 124.137 264.943 123.041 264.943 L 123.041 264.943 L 123.041 264.943 Q 121.945 264.943 121.045 265.491 L 121.045 265.491 L 121.045 265.491 Q 120.145 266.039 119.61 267.044 L 119.61 267.044 L 119.61 267.044 Q 119.075 268.049 119.075 269.327 L 119.075 269.327 L 119.075 269.327 Q 119.075 270.606 119.61 271.597 L 119.61 271.597 L 119.61 271.597 Q 120.145 272.589 121.045 273.137 L 121.045 273.137 L 121.045 273.137 Q 121.945 273.685 123.041 273.685 L 123.041 273.685 L 123.041 273.685 Q 124.137 273.685 125.037 273.137 L 125.037 273.137 L 125.037 273.137 Q 125.937 272.589 126.472 271.597 L 126.472 271.597 L 126.472 271.597 Q 127.007 270.606 127.007 269.327 L 127.007 269.327 L 127.007 269.327 Z  M 131.991 281.408 L 131.991 281.408 Q 131.365 281.408 130.947 280.991 L 130.947 280.991 L 130.947 280.991 Q 130.53 280.573 130.53 279.947 L 130.53 279.947 L 130.53 279.66 L 130.53 279.66 Q 130.53 278.616 131.861 278.225 L 131.861 278.225 L 131.861 278.225 Q 132.696 277.964 132.917 277.351 L 132.917 277.351 L 132.917 277.351 Q 133.139 276.737 133.139 275.642 L 133.139 275.642 L 133.139 263.926 L 133.139 263.926 Q 133.139 263.247 133.583 262.791 L 133.583 262.791 L 133.583 262.791 Q 134.026 262.334 134.705 262.334 L 134.705 262.334 L 134.705 262.334 Q 135.383 262.334 135.827 262.791 L 135.827 262.791 L 135.827 262.791 Q 136.27 263.247 136.27 263.926 L 136.27 263.926 L 136.27 276.555 L 136.27 276.555 Q 136.27 278.016 135.709 279.112 L 135.709 279.112 L 135.709 279.112 Q 135.148 280.208 134.17 280.808 L 134.17 280.808 L 134.17 280.808 Q 133.191 281.408 131.991 281.408 L 131.991 281.408 L 131.991 281.408 Z  M 134.653 260.638 L 134.653 260.638 Q 133.765 260.638 133.4 260.351 L 133.4 260.351 L 133.4 260.351 Q 133.035 260.064 133.035 259.333 L 133.035 259.333 L 133.035 258.838 L 133.035 258.838 Q 133.035 258.107 133.426 257.82 L 133.426 257.82 L 133.426 257.82 Q 133.818 257.533 134.679 257.533 L 134.679 257.533 L 134.679 257.533 Q 135.592 257.533 135.957 257.82 L 135.957 257.82 L 135.957 257.82 Q 136.322 258.107 136.322 258.838 L 136.322 258.838 L 136.322 259.333 L 136.322 259.333 Q 136.322 260.09 135.944 260.364 L 135.944 260.364 L 135.944 260.364 Q 135.566 260.638 134.653 260.638 L 134.653 260.638 L 134.653 260.638 Z  M 152.448 268.988 L 152.448 268.988 Q 152.422 269.614 151.952 270.005 L 151.952 270.005 L 151.952 270.005 Q 151.482 270.397 150.856 270.397 L 150.856 270.397 L 142.246 270.397 L 142.246 270.397 Q 142.559 271.936 143.681 272.81 L 143.681 272.81 L 143.681 272.81 Q 144.803 273.685 146.212 273.685 L 146.212 273.685 L 146.212 273.685 Q 147.281 273.685 147.882 273.489 L 147.882 273.489 L 147.882 273.489 Q 148.482 273.293 148.834 273.071 L 148.834 273.071 L 148.834 273.071 Q 149.186 272.85 149.317 272.771 L 149.317 272.771 L 149.317 272.771 Q 149.786 272.536 150.204 272.536 L 150.204 272.536 L 150.204 272.536 Q 150.752 272.536 151.143 272.928 L 151.143 272.928 L 151.143 272.928 Q 151.535 273.319 151.535 273.841 L 151.535 273.841 L 151.535 273.841 Q 151.535 274.546 150.804 275.12 L 150.804 275.12 L 150.804 275.12 Q 150.073 275.72 148.847 276.137 L 148.847 276.137 L 148.847 276.137 Q 147.621 276.555 146.368 276.555 L 146.368 276.555 L 146.368 276.555 Q 144.176 276.555 142.546 275.642 L 142.546 275.642 L 142.546 275.642 Q 140.915 274.728 140.028 273.124 L 140.028 273.124 L 140.028 273.124 Q 139.14 271.519 139.14 269.51 L 139.14 269.51 L 139.14 269.51 Q 139.14 267.266 140.08 265.57 L 140.08 265.57 L 140.08 265.57 Q 141.019 263.874 142.559 262.973 L 142.559 262.973 L 142.559 262.973 Q 144.098 262.073 145.846 262.073 L 145.846 262.073 L 145.846 262.073 Q 147.568 262.073 149.095 263.013 L 149.095 263.013 L 149.095 263.013 Q 150.621 263.952 151.535 265.544 L 151.535 265.544 L 151.535 265.544 Q 152.448 267.135 152.448 268.988 L 152.448 268.988 L 152.448 268.988 Z  M 145.846 264.943 L 145.846 264.943 Q 142.82 264.943 142.272 267.788 L 142.272 267.788 L 149.108 267.788 L 149.108 267.605 L 149.108 267.605 Q 149.004 266.509 148.038 265.726 L 148.038 265.726 L 148.038 265.726 Q 147.073 264.943 145.846 264.943 L 145.846 264.943 L 145.846 264.943 Z  M 161.137 262.073 L 161.137 262.073 Q 163.355 262.073 164.712 262.765 L 164.712 262.765 L 164.712 262.765 Q 166.068 263.456 166.068 264.604 L 166.068 264.604 L 166.068 264.604 Q 166.068 265.178 165.729 265.609 L 165.729 265.609 L 165.729 265.609 Q 165.39 266.039 164.842 266.039 L 164.842 266.039 L 164.842 266.039 Q 164.424 266.039 164.164 265.922 L 164.164 265.922 L 164.164 265.922 Q 163.903 265.805 163.655 265.609 L 163.655 265.609 L 163.655 265.609 Q 163.407 265.413 163.172 265.283 L 163.172 265.283 L 163.172 265.283 Q 162.911 265.152 162.402 265.048 L 162.402 265.048 L 162.402 265.048 Q 161.893 264.943 161.58 264.943 L 161.58 264.943 L 161.58 264.943 Q 159.623 264.943 158.514 266.157 L 158.514 266.157 L 158.514 266.157 Q 157.406 267.37 157.406 269.327 L 157.406 269.327 L 157.406 269.327 Q 157.406 271.206 158.527 272.445 L 158.527 272.445 L 158.527 272.445 Q 159.649 273.685 161.398 273.685 L 161.398 273.685 L 161.398 273.685 Q 162.676 273.685 163.302 273.371 L 163.302 273.371 L 163.302 273.371 Q 163.459 273.293 163.733 273.097 L 163.733 273.097 L 163.733 273.097 Q 164.007 272.902 164.242 272.797 L 164.242 272.797 L 164.242 272.797 Q 164.477 272.693 164.816 272.693 L 164.816 272.693 L 164.816 272.693 Q 165.468 272.693 165.847 273.111 L 165.847 273.111 L 165.847 273.111 Q 166.225 273.528 166.225 274.18 L 166.225 274.18 L 166.225 274.18 Q 166.225 274.807 165.494 275.355 L 165.494 275.355 L 165.494 275.355 Q 164.764 275.902 163.563 276.229 L 163.563 276.229 L 163.563 276.229 Q 162.363 276.555 161.006 276.555 L 161.006 276.555 L 161.006 276.555 Q 158.997 276.555 157.471 275.615 L 157.471 275.615 L 157.471 275.615 Q 155.944 274.676 155.109 273.019 L 155.109 273.019 L 155.109 273.019 Q 154.274 271.362 154.274 269.327 L 154.274 269.327 L 154.274 269.327 Q 154.274 267.214 155.148 265.57 L 155.148 265.57 L 155.148 265.57 Q 156.023 263.926 157.588 263 L 157.588 263 L 157.588 263 Q 159.154 262.073 161.137 262.073 L 161.137 262.073 L 161.137 262.073 Z  M 175.227 273.345 L 175.227 273.345 Q 175.592 273.345 175.892 273.698 L 175.892 273.698 L 175.892 273.698 Q 176.192 274.05 176.192 274.624 L 176.192 274.624 L 176.192 274.624 Q 176.192 275.328 175.423 275.811 L 175.423 275.811 L 175.423 275.811 Q 174.653 276.294 173.687 276.294 L 173.687 276.294 L 173.687 276.294 Q 172.07 276.294 170.961 275.602 L 170.961 275.602 L 170.961 275.602 Q 169.852 274.911 169.852 272.667 L 169.852 272.667 L 169.852 265.465 L 168.652 265.465 L 168.652 265.465 Q 168.025 265.465 167.608 265.048 L 167.608 265.048 L 167.608 265.048 Q 167.19 264.63 167.19 264.004 L 167.19 264.004 L 167.19 264.004 Q 167.19 263.404 167.608 263 L 167.608 263 L 167.608 263 Q 168.025 262.595 168.652 262.595 L 168.652 262.595 L 169.852 262.595 L 169.852 260.925 L 169.852 260.925 Q 169.852 260.247 170.308 259.79 L 170.308 259.79 L 170.308 259.79 Q 170.765 259.333 171.443 259.333 L 171.443 259.333 L 171.443 259.333 Q 172.096 259.333 172.539 259.79 L 172.539 259.79 L 172.539 259.79 Q 172.983 260.247 172.983 260.925 L 172.983 260.925 L 172.983 262.595 L 174.836 262.595 L 174.836 262.595 Q 175.462 262.595 175.879 263.013 L 175.879 263.013 L 175.879 263.013 Q 176.297 263.43 176.297 264.056 L 176.297 264.056 L 176.297 264.056 Q 176.297 264.656 175.879 265.061 L 175.879 265.061 L 175.879 265.061 Q 175.462 265.465 174.836 265.465 L 174.836 265.465 L 172.983 265.465 L 172.983 272.536 L 172.983 272.536 Q 172.983 273.084 173.27 273.332 L 173.27 273.332 L 173.27 273.332 Q 173.557 273.58 174.053 273.58 L 174.053 273.58 L 174.053 273.58 Q 174.262 273.58 174.627 273.476 L 174.627 273.476 L 174.627 273.476 Q 174.94 273.345 175.227 273.345 L 175.227 273.345 L 175.227 273.345 Z  M 178.88 274.128 L 178.88 274.128 Q 178.645 273.815 178.645 273.345 L 178.645 273.345 L 178.645 273.345 Q 178.645 272.667 179.324 272.197 L 179.324 272.197 L 179.324 272.197 Q 179.689 271.962 180.08 271.962 L 180.08 271.962 L 180.08 271.962 Q 180.628 271.962 181.124 272.458 L 181.124 272.458 L 181.124 272.458 Q 181.907 273.267 182.755 273.658 L 182.755 273.658 L 182.755 273.658 Q 183.603 274.05 184.803 274.05 L 184.803 274.05 L 184.803 274.05 Q 186.838 273.972 186.838 272.51 L 186.838 272.51 L 186.838 272.51 Q 186.838 271.754 186.147 271.362 L 186.147 271.362 L 186.147 271.362 Q 185.455 270.971 183.994 270.58 L 183.994 270.58 L 183.994 270.58 Q 182.481 270.162 181.528 269.745 L 181.528 269.745 L 181.528 269.745 Q 180.576 269.327 179.885 268.479 L 179.885 268.479 L 179.885 268.479 Q 179.193 267.631 179.193 266.196 L 179.193 266.196 L 179.193 266.196 Q 179.193 264.943 179.911 264.017 L 179.911 264.017 L 179.911 264.017 Q 180.628 263.091 181.789 262.582 L 181.789 262.582 L 181.789 262.582 Q 182.95 262.073 184.255 262.073 L 184.255 262.073 L 184.255 262.073 Q 185.586 262.073 186.917 262.569 L 186.917 262.569 L 186.917 262.569 Q 188.247 263.065 189.004 264.03 L 189.004 264.03 L 189.004 264.03 Q 189.343 264.448 189.343 264.97 L 189.343 264.97 L 189.343 264.97 Q 189.343 265.57 188.847 265.961 L 188.847 265.961 L 188.847 265.961 Q 188.482 266.248 188.012 266.248 L 188.012 266.248 L 188.012 266.248 Q 187.438 266.248 187.073 265.883 L 187.073 265.883 L 187.073 265.883 Q 186.603 265.309 185.86 264.97 L 185.86 264.97 L 185.86 264.97 Q 185.116 264.63 184.177 264.63 L 184.177 264.63 L 184.177 264.63 Q 182.194 264.63 182.194 266.065 L 182.194 266.065 L 182.194 266.065 Q 182.194 266.639 182.559 266.992 L 182.559 266.992 L 182.559 266.992 Q 182.924 267.344 183.485 267.54 L 183.485 267.54 L 183.485 267.54 Q 184.046 267.735 185.064 268.022 L 185.064 268.022 L 185.064 268.022 Q 186.473 268.414 187.412 268.831 L 187.412 268.831 L 187.412 268.831 Q 188.352 269.249 189.004 270.11 L 189.004 270.11 L 189.004 270.11 Q 189.656 270.971 189.656 272.38 L 189.656 272.38 L 189.656 272.38 Q 189.656 273.658 188.9 274.611 L 188.9 274.611 L 188.9 274.611 Q 188.143 275.563 186.956 276.059 L 186.956 276.059 L 186.956 276.059 Q 185.768 276.555 184.516 276.555 L 184.516 276.555 L 184.516 276.555 Q 182.794 276.555 181.307 275.981 L 181.307 275.981 L 181.307 275.981 Q 179.819 275.407 178.88 274.128 L 178.88 274.128 L 178.88 274.128 Z " fill="rgb(0,0,0)"/></g><g><path d=" M 74.718 88.67 L 51.546 112.014 L 42.378 102.67 L 39.546 105.525 L 51.546 117.67 L 77.546 91.463 L 74.718 88.67 Z " fill="rgb(56,142,60)"/><path d=" M 64.718 88.67 L 41.546 112.014 L 32.378 102.67 L 29.546 105.525 L 41.546 117.67 L 67.546 91.463 L 64.718 88.67 Z " fill="rgb(102,187,106)"/></g><g><path d=" M 74.718 142.989 L 51.546 166.333 L 42.378 156.989 L 39.546 159.844 L 51.546 171.989 L 77.546 145.782 L 74.718 142.989 Z " fill="rgb(56,142,60)"/><path d=" M 64.718 142.989 L 41.546 166.333 L 32.378 156.989 L 29.546 159.844 L 41.546 171.989 L 67.546 145.782 L 64.718 142.989 Z " fill="rgb(102,187,106)"/></g><g><path d=" M 74.914 197.499 L 51.742 220.843 L 42.574 211.499 L 39.742 214.354 L 51.742 226.499 L 77.742 200.292 L 74.914 197.499 Z " fill="rgb(56,142,60)"/><path d=" M 64.914 197.499 L 41.742 220.843 L 32.574 211.499 L 29.742 214.354 L 41.742 226.499 L 67.742 200.292 L 64.914 197.499 Z " fill="rgb(102,187,106)"/></g><g><path d=" M 74.914 252.009 L 51.742 275.353 L 42.574 266.009 L 39.742 268.864 L 51.742 281.009 L 77.742 254.802 L 74.914 252.009 Z " fill="rgb(56,142,60)"/><path d=" M 64.914 252.009 L 41.742 275.353 L 32.574 266.009 L 29.742 268.864 L 41.742 281.009 L 67.742 254.802 L 64.914 252.009 Z " fill="rgb(102,187,106)"/></g><rect x="21.213" y="21.213" width="279.746" height="54.51" transform="matrix(1,0,0,1,0,0)" fill="rgb(179,52,82)"/><g><circle vector-effect="non-scaling-stroke" cx="93.53153222973103" cy="48.46808853617716" r="8.79391891891892" fill="rgb(255,191,0)"/><circle vector-effect="non-scaling-stroke" cx="53.07545114864999" cy="48.46808853617716" r="8.79391891891892" fill="rgb(232,122,56)"/><circle vector-effect="non-scaling-stroke" cx="134.6542799774789" cy="48.46808853617716" r="8.793918918918912" fill="rgb(93,184,113)"/></g></g></g><path d="M 157.017 303.286 L 165.155 303.286 C 167.845 303.286 170.03 305.471 170.03 308.161 L 170.03 308.161 C 170.03 310.852 167.845 313.036 165.155 313.036 L 157.017 313.036 C 154.327 313.036 152.142 310.852 152.142 308.161 L 152.142 308.161 C 152.142 305.471 154.327 303.286 157.017 303.286 Z" style="stroke:none;fill:#EBEBEB;stroke-miterlimit:10;"/></svg>