<?xml version="1.0" standalone="no"?><!-- Generator: Gravit.io --><svg xmlns="http://www.w3.org/2000/svg" xmlns:xlink="http://www.w3.org/1999/xlink" style="isolation:isolate" viewBox="166.63 492 173.991 173.991" width="173.991" height="173.991"><g><circle vector-effect="non-scaling-stroke" cx="253.625" cy="578.9952755905512" r="86.99527559055117" fill="rgb(187,181,181)"/><path d=" M 319 546.729 C 314.388 548.773 309.495 550.114 304.485 550.707 C 309.763 547.55 313.713 542.58 315.597 536.726 C 310.636 539.67 305.208 541.744 299.547 542.859 C 291.724 534.496 279.256 532.438 269.159 537.842 C 259.062 543.245 253.86 554.762 256.479 565.91 C 236.156 564.892 217.222 555.293 204.388 539.502 C 202.142 543.361 200.962 547.747 200.969 552.211 C 200.969 560.977 205.43 568.712 212.21 573.245 C 208.197 573.118 204.273 572.034 200.764 570.083 L 200.764 570.401 C 200.765 582.433 209.245 592.798 221.038 595.182 C 217.316 596.199 213.411 596.348 209.623 595.618 C 212.933 605.913 222.421 612.967 233.233 613.172 C 224.282 620.199 213.227 624.01 201.847 623.991 C 199.809 623.991 197.797 623.873 195.816 623.637 C 207.372 631.063 220.821 635.004 234.557 634.991 C 281.044 634.991 306.461 596.48 306.461 563.082 C 306.461 561.989 306.435 560.895 306.389 559.812 C 311.336 556.234 315.606 551.804 319 546.729 Z " fill="rgb(47,44,44)"/></g></svg>