<?xml version="1.0" standalone="no"?><!-- Generator: Gravit.io --><svg xmlns="http://www.w3.org/2000/svg" xmlns:xlink="http://www.w3.org/1999/xlink" style="isolation:isolate" viewBox="137.689 7.582 319.897 281.058" width="319.897" height="281.058"><g><mask id="_mask_63eGcTGRcFX8ugzFAGwtcZo44WCBFrTS" x="-200%" y="-200%" width="400%" height="400%"><rect x="-200%" y="-200%" width="400%" height="400%" style="fill:white;"/><path d=" M 152.689 148.111 L 225.163 22.582 L 370.112 22.582 L 442.586 148.111 L 370.112 273.64 L 225.163 273.641 L 152.689 148.111 Z " fill="black" stroke="none"/></mask><path d=" M 152.689 148.111 L 225.163 22.582 L 370.112 22.582 L 442.586 148.111 L 370.112 273.64 L 225.163 273.641 L 152.689 148.111 Z " fill="rgb(235,235,235)" mask="url(#_mask_63eGcTGRcFX8ugzFAGwtcZo44WCBFrTS)" vector-effect="non-scaling-stroke" stroke-width="10" stroke="rgb(76,116,155)" stroke-opacity="100" stroke-linejoin="miter" stroke-linecap="square" stroke-miterlimit="3"/><g><g><rect x="255.731" y="70.377" width="119.769" height="85.188" transform="matrix(1,0,0,1,0,0)" fill="rgb(255,255,255)"/><path d=" M 381.514 144.362 L 381.514 98.926 C 381.514 81.717 367.542 67.745 350.333 67.745 L 268.943 67.745 C 251.734 67.745 237.762 81.717 237.762 98.926 L 237.762 144.362 C 237.762 161.571 251.734 175.543 268.943 175.543 L 350.333 175.543 C 367.542 175.543 381.514 161.571 381.514 144.362 Z  M 286.987 84.076 L 300.949 92.131 L 334.783 111.649 L 286.987 139.222 L 286.987 84.076 L 286.987 84.076 Z  M 253.727 153.591 L 336.778 153.591 C 337.71 149.034 341.734 145.608 346.557 145.608 C 351.38 145.608 355.404 149.034 356.336 153.591 L 365.516 153.591 C 366.613 153.591 367.511 154.489 367.511 155.586 C 367.511 156.684 366.613 157.582 365.516 157.582 L 356.336 157.582 C 355.404 162.139 351.38 165.565 346.557 165.565 C 341.734 165.565 337.71 162.139 336.778 157.582 L 253.727 157.582 C 252.629 157.582 251.731 156.684 251.731 155.586 C 251.731 154.489 252.629 153.591 253.727 153.591 Z  M 346.557 149.6 C 343.264 149.6 340.57 152.294 340.57 155.586 C 340.57 158.879 343.264 161.573 346.557 161.573 C 349.85 161.573 352.544 158.879 352.544 155.586 C 352.544 152.26 349.85 149.6 346.557 149.6 Z " fill="rgb(101,151,202)"/></g><g><rect x="234.731" y="88.776" width="119.769" height="85.188" transform="matrix(1,0,0,1,0,0)" fill="rgb(255,255,255)"/><path d=" M 369.514 154.76 L 369.514 109.325 C 369.514 92.116 355.542 78.144 338.333 78.144 L 256.943 78.144 C 239.734 78.144 225.762 92.116 225.762 109.325 L 225.762 154.76 C 225.762 171.97 239.734 185.941 256.943 185.941 L 338.333 185.941 C 355.542 185.941 369.514 171.97 369.514 154.76 Z  M 274.987 94.475 L 322.783 122.048 L 274.987 149.621 L 274.987 94.475 L 274.987 94.475 Z  M 241.727 163.99 L 324.778 163.99 C 325.71 159.433 329.734 156.007 334.557 156.007 C 339.38 156.007 343.404 159.433 344.336 163.99 L 353.516 163.99 C 354.613 163.99 355.511 164.888 355.511 165.985 C 355.511 167.083 354.613 167.981 353.516 167.981 L 344.336 167.981 C 343.404 172.537 339.38 175.963 334.557 175.963 C 329.734 175.963 325.71 172.537 324.778 167.981 L 241.727 167.981 C 240.629 167.981 239.731 167.083 239.731 165.985 C 239.731 164.888 240.629 163.99 241.727 163.99 Z  M 334.557 159.998 C 331.264 159.998 328.57 162.692 328.57 165.985 C 328.57 169.278 331.264 171.972 334.557 171.972 C 337.85 171.972 340.544 169.278 340.544 165.985 C 340.544 162.659 337.85 159.998 334.557 159.998 Z " fill="rgb(57,106,155)"/></g><g><rect x="227.731" y="103.276" width="119.769" height="85.188" transform="matrix(1,0,0,1,0,0)" fill="rgb(255,255,255)"/><path d=" M 357.514 167.26 L 357.514 121.825 C 357.514 104.616 343.542 90.644 326.333 90.644 L 244.943 90.644 C 227.734 90.644 213.762 104.616 213.762 121.825 L 213.762 167.26 C 213.762 184.47 227.734 198.441 244.943 198.441 L 326.333 198.441 C 343.542 198.441 357.514 184.47 357.514 167.26 Z  M 262.987 106.975 L 310.783 134.548 L 262.987 162.121 L 262.987 106.975 L 262.987 106.975 Z  M 229.727 176.489 L 312.778 176.489 C 313.71 171.933 317.734 168.507 322.557 168.507 C 327.38 168.507 331.404 171.933 332.336 176.489 L 341.516 176.489 C 342.613 176.489 343.511 177.388 343.511 178.485 C 343.511 179.583 342.613 180.481 341.516 180.481 L 332.336 180.481 C 331.404 185.037 327.38 188.463 322.557 188.463 C 317.734 188.463 313.71 185.037 312.778 180.481 L 229.727 180.481 C 228.629 180.481 227.731 179.583 227.731 178.485 C 227.731 177.388 228.629 176.489 229.727 176.489 Z  M 322.557 172.498 C 319.264 172.498 316.57 175.192 316.57 178.485 C 316.57 181.778 319.264 184.472 322.557 184.472 C 325.85 184.472 328.544 181.778 328.544 178.485 C 328.544 175.159 325.85 172.498 322.557 172.498 Z " fill="rgb(18,58,98)"/></g></g><g transform="matrix(1.979,0,0,1.979,251.138,211.379)"><text transform="matrix(1,0,0,1,0,15)" style="font-family:'Nexa Bold';font-weight:400;font-size:20px;font-style:normal;fill:#6c6868;stroke:none;">100+</text></g></g></svg>