<?xml version="1.0" standalone="no"?><!-- Generator: Gravit.io --><svg xmlns="http://www.w3.org/2000/svg" xmlns:xlink="http://www.w3.org/1999/xlink" style="isolation:isolate" viewBox="0 0 319.897 281.058" width="319.897" height="281.058"><clipPath id="_clipPath_WgNPR1veG2CqDFF47L2brTT2felFXVvx"><path d=" M -777.483 -569.698 L 502.105 -569.698 L 502.105 554.534 L -777.483 554.534 L -777.483 -569.698 Z  M 15 140.529 L 87.474 15 L 232.423 15 L 304.897 140.529 L 232.423 266.058 L 87.474 266.059 L 15 140.529 Z " fill-rule="evenodd" fill="rgb(255,255,255)"/></clipPath><g clip-path="url(#_clipPath_WgNPR1veG2CqDFF47L2brTT2felFXVvx)"><mask id="_mask_ojlPoMhin3jMaNy73vZdbTz7pd8x89d0" x="-200%" y="-200%" width="400%" height="400%"><rect x="-200%" y="-200%" width="400%" height="400%" style="fill:white;"/><path d=" M 15 140.529 L 87.474 15 L 232.423 15 L 304.897 140.529 L 232.423 266.058 L 87.474 266.059 L 15 140.529 Z " fill="black" stroke="none"/></mask><path d=" M 15 140.529 L 87.474 15 L 232.423 15 L 304.897 140.529 L 232.423 266.058 L 87.474 266.059 L 15 140.529 Z " fill="rgb(235,235,235)" mask="url(#_mask_ojlPoMhin3jMaNy73vZdbTz7pd8x89d0)" vector-effect="non-scaling-stroke" stroke-width="10" stroke="rgb(76,116,155)" stroke-opacity="10000" stroke-linejoin="miter" stroke-linecap="square" stroke-miterlimit="3"/></g><g><g><rect x="118.042" y="62.795" width="119.769" height="85.188" transform="matrix(1,0,0,1,0,0)" fill="rgb(255,255,255)"/><path d=" M 243.825 136.78 L 243.825 91.344 C 243.825 74.135 229.853 60.163 212.644 60.163 L 131.254 60.163 C 114.045 60.163 100.073 74.135 100.073 91.344 L 100.073 136.78 C 100.073 153.989 114.045 167.961 131.254 167.961 L 212.644 167.961 C 229.853 167.961 243.825 153.989 243.825 136.78 Z  M 149.298 76.494 L 163.26 84.549 L 197.094 104.067 L 149.298 131.64 L 149.298 76.494 L 149.298 76.494 Z  M 116.038 146.009 L 199.089 146.009 C 200.021 141.452 204.045 138.026 208.868 138.026 C 213.691 138.026 217.715 141.452 218.647 146.009 L 227.827 146.009 C 228.924 146.009 229.822 146.907 229.822 148.004 C 229.822 149.102 228.924 150 227.827 150 L 218.647 150 C 217.715 154.557 213.691 157.983 208.868 157.983 C 204.045 157.983 200.021 154.557 199.089 150 L 116.038 150 C 114.94 150 114.042 149.102 114.042 148.004 C 114.042 146.907 114.94 146.009 116.038 146.009 Z  M 208.868 142.018 C 205.575 142.018 202.881 144.712 202.881 148.004 C 202.881 151.297 205.575 153.991 208.868 153.991 C 212.161 153.991 214.855 151.297 214.855 148.004 C 214.855 144.678 212.161 142.018 208.868 142.018 Z " fill="rgb(101,151,202)"/></g><g><rect x="97.042" y="81.194" width="119.769" height="85.188" transform="matrix(1,0,0,1,0,0)" fill="rgb(255,255,255)"/><path d=" M 231.825 147.178 L 231.825 101.743 C 231.825 84.534 217.853 70.562 200.644 70.562 L 119.254 70.562 C 102.045 70.562 88.073 84.534 88.073 101.743 L 88.073 147.178 C 88.073 164.388 102.045 178.359 119.254 178.359 L 200.644 178.359 C 217.853 178.359 231.825 164.388 231.825 147.178 Z  M 137.298 86.893 L 185.094 114.466 L 137.298 142.039 L 137.298 86.893 L 137.298 86.893 Z  M 104.038 156.408 L 187.089 156.408 C 188.021 151.851 192.045 148.425 196.868 148.425 C 201.691 148.425 205.715 151.851 206.647 156.408 L 215.827 156.408 C 216.924 156.408 217.822 157.306 217.822 158.403 C 217.822 159.501 216.924 160.399 215.827 160.399 L 206.647 160.399 C 205.715 164.955 201.691 168.381 196.868 168.381 C 192.045 168.381 188.021 164.955 187.089 160.399 L 104.038 160.399 C 102.94 160.399 102.042 159.501 102.042 158.403 C 102.042 157.306 102.94 156.408 104.038 156.408 Z  M 196.868 152.416 C 193.575 152.416 190.881 155.11 190.881 158.403 C 190.881 161.696 193.575 164.39 196.868 164.39 C 200.161 164.39 202.855 161.696 202.855 158.403 C 202.855 155.077 200.161 152.416 196.868 152.416 Z " fill="rgb(57,106,155)"/></g><g><rect x="90.042" y="95.694" width="119.769" height="85.188" transform="matrix(1,0,0,1,0,0)" fill="rgb(255,255,255)"/><path d=" M 219.825 159.678 L 219.825 114.243 C 219.825 97.034 205.853 83.062 188.644 83.062 L 107.254 83.062 C 90.045 83.062 76.073 97.034 76.073 114.243 L 76.073 159.678 C 76.073 176.888 90.045 190.859 107.254 190.859 L 188.644 190.859 C 205.853 190.859 219.825 176.888 219.825 159.678 Z  M 125.298 99.393 L 173.094 126.966 L 125.298 154.539 L 125.298 99.393 L 125.298 99.393 Z  M 92.038 168.907 L 175.089 168.907 C 176.021 164.351 180.045 160.925 184.868 160.925 C 189.691 160.925 193.715 164.351 194.647 168.907 L 203.827 168.907 C 204.924 168.907 205.822 169.806 205.822 170.903 C 205.822 172.001 204.924 172.899 203.827 172.899 L 194.647 172.899 C 193.715 177.455 189.691 180.881 184.868 180.881 C 180.045 180.881 176.021 177.455 175.089 172.899 L 92.038 172.899 C 90.94 172.899 90.042 172.001 90.042 170.903 C 90.042 169.806 90.94 168.907 92.038 168.907 Z  M 184.868 164.916 C 181.575 164.916 178.881 167.61 178.881 170.903 C 178.881 174.196 181.575 176.89 184.868 176.89 C 188.161 176.89 190.855 174.196 190.855 170.903 C 190.855 167.577 188.161 164.916 184.868 164.916 Z " fill="rgb(18,58,98)"/></g></g><g><path d=" M 113.805 233.482 L 126.985 233.482 L 126.985 229.049 L 123.146 229.049 L 123.146 205.776 L 113.647 205.776 L 113.647 210.526 L 117.961 210.526 L 117.961 229.049 L 113.805 229.049 L 113.805 233.482 Z  M 134.426 217.61 C 134.426 207.597 148.359 207.715 148.359 217.61 L 148.359 221.608 C 148.359 231.661 134.426 231.661 134.426 221.608 L 134.426 217.61 Z  M 129.241 221.608 C 129.241 238.152 153.544 238.113 153.544 221.608 L 153.544 217.61 C 153.544 201.106 129.241 201.066 129.241 217.61 L 129.241 221.608 Z  M 161.974 217.61 C 161.974 207.597 175.906 207.715 175.906 217.61 L 175.906 221.608 C 175.906 231.661 161.974 231.661 161.974 221.608 L 161.974 217.61 Z  M 156.789 221.608 C 156.789 238.152 181.091 238.113 181.091 221.608 L 181.091 217.61 C 181.091 201.106 156.789 201.066 156.789 217.61 L 156.789 221.608 Z  M 183.743 217.531 L 183.743 221.925 L 189.561 221.925 L 189.561 227.862 L 194.351 227.862 L 194.351 221.925 L 200.248 221.925 L 200.248 217.531 L 194.351 217.531 L 194.351 211.634 L 189.561 211.634 L 189.561 217.531 L 183.743 217.531 Z " fill-rule="evenodd" fill="rgb(108,104,104)"/></g></svg>