<?xml version="1.0" standalone="no"?><!-- Generator: Gravit.io --><svg xmlns="http://www.w3.org/2000/svg" xmlns:xlink="http://www.w3.org/1999/xlink" style="isolation:isolate" viewBox="275.331 540.92 173.991 173.991" width="173.991" height="173.991"><g><circle vector-effect="non-scaling-stroke" cx="362.3262755905512" cy="627.9152755905512" r="86.99527559055116" fill="rgb(187,181,181)"/><path d=" M 416.909 599.752 C 415.836 593.851 410.74 589.56 404.839 588.219 C 395.988 586.341 379.626 585 361.924 585 C 344.221 585 327.592 586.341 318.74 588.219 C 312.84 589.56 307.743 593.583 306.671 599.752 C 305.598 606.458 304.525 615.845 304.525 627.915 C 304.525 639.985 305.598 649.373 306.939 656.078 C 308.012 661.979 313.108 666.271 319.009 667.612 C 328.396 669.489 344.49 670.831 362.192 670.831 C 379.895 670.831 395.988 669.489 405.376 667.612 C 411.277 666.271 416.373 662.247 417.446 656.078 C 418.518 649.373 419.86 639.717 420.128 627.915 C 419.591 615.845 418.25 606.458 416.909 599.752 Z  M 347.44 646.691 L 347.44 609.14 L 380.163 627.915 L 347.44 646.691 Z " fill="rgb(47,44,44)"/></g></svg>